<svg id="Layer_1" data-name="Layer 1" xmlns="http://www.w3.org/2000/svg" viewBox="0 0 25.282 25.282"><defs><style>.cls-1{fill:#1f1a17;}</style></defs><title>e</title><path class="cls-1" d="M12.641,0A12.641,12.641,0,1,0,25.282,12.641h0A12.6561,12.6561,0,0,0,12.641,0Zm0,23.623A10.982,10.982,0,1,1,23.623,12.641h0A11,11,0,0,1,12.641,23.623Z" transform="translate(0)"/><path class="cls-1" d="M12.963,16.79a4.0258,4.0258,0,0,1-4.324-4.256,4.1181,4.1181,0,0,1,4.324-4.363,4.3607,4.3607,0,0,1,3.034,1.181l1.581-1.523a6.4649,6.4649,0,0,0-4.615-1.923,6.3272,6.3272,0,0,0-6.666,6.628c.02,3.27,1.991,6.482,6.667,6.482a6.6291,6.6291,0,0,0,4.773-1.864l-1.62-1.63A4.5889,4.5889,0,0,1,12.963,16.79Z" transform="translate(0)"/></svg>