<svg id="Layer_1" data-name="Layer 1" xmlns="http://www.w3.org/2000/svg" viewBox="0 0 92.7 92.7"><defs><style>.cls-1{fill:#4d184c;}.cls-2{fill:#fff;fill-rule:evenodd;}</style></defs><title>youtube</title><g id="Group_324" data-name="Group 324"><path id="Path_390" data-name="Path 390" class="cls-1" d="M46.35,0A46.35,46.35,0,1,1,0,46.35,46.35,46.35,0,0,1,46.35,0Z" transform="translate(0 0)"/><g id="icons5"><path id="Path_125" data-name="Path 125" class="cls-2" d="M68.3791,37.0063s-.4541-3.178-1.768-4.564a6.3083,6.3083,0,0,0-4.3941-1.959c-6.165-.454-15.409-.454-15.409-.454h-.051s-9.22,0-15.3849.454a6.2778,6.2778,0,0,0-4.418,1.959c-1.314,1.386-1.768,4.564-1.768,4.564a70.28,70.28,0,0,0-.46,7.4v3.512a69.1906,69.1906,0,0,0,.454,7.4s.454,3.178,1.768,4.588c1.673,1.84,3.883,1.768,4.875,1.959,3.509.358,14.979.478,14.979.478s9.244-.048,15.409-.478a6.2,6.2,0,0,0,4.394-1.959c1.314-1.41,1.768-4.588,1.768-4.588a72.9226,72.9226,0,0,0,.43-7.4v-3.512a74.1,74.1,0,0,0-.43-7.4Zm-14.238,8.695-11.92,6.425v-12.9l5.4,2.936Z" transform="translate(0 0)"/></g></g></svg>