<svg id="Layer_1" data-name="Layer 1" xmlns="http://www.w3.org/2000/svg" viewBox="0 0 1413.9974 1581.7273"><defs><style>.cls-1{opacity:0.2;}.cls-2{fill:#f7daec;stroke:#8d0171;}</style></defs><title>lotus-flower</title><g class="cls-1"><path class="cls-2" d="M1246.659,931.39c181.822-218.558,167.066-564.215,166.332-579.135-1.165-23.568-17.994-42.384-39.056-43.687-6.309-.4-95.6231-5.269-207.3831,20.181-22.045-126.666-60.671-217.667-62.5-221.949-9.1319-21.276-31.1-31.455-51.025-23.64-4,1.568-88.776,35.339-184.375,107.428C805.938,84.656,739.907,17.56,734.669,12.314c-15.706-15.752-39.5-15.752-55.217,0C674.214,17.56,608.183,84.656,545.473,190.6c-95.6-72.089-180.387-105.872-184.375-107.44-19.912-7.8-41.893,2.364-51.025,23.64-1.832,4.282-40.469,95.282-62.5,221.961-111.76-25.45-201.086-20.579-207.392-20.193-21.065,1.3-37.882,20.119-39.047,43.7C.386,367.175-14.361,712.832,167.459,931.39,74.825,988.765,14.174,1063.726,11.177,1067.465c-14.068,17.584-14.068,44.2,0,61.787,6.587,8.2259,163.506,201.4339,363.353,201.4339,51.928,0,100.936-13.064,145.189-32.519,46,155.9,154.6131,266.117,159.722,271.255a38.2,38.2,0,0,0,54.0092,1.22q.6236-.5961,1.22-1.22c5.119-5.125,113.711-115.351,159.722-271.242,44.253,19.443,93.261,32.507,145.189,32.507,199.8459,0,356.778-193.209,363.363-201.434,14.069-17.584,14.069-44.2,0-61.787C1399.9371,1063.714,1339.2749,988.752,1246.659,931.39Zm-70.427-51.656c-107.673,120.466-268.053,157.3829-370.046,168.335C879.773,949.762,983.427,775.3,983.427,572.586a613.3111,613.3111,0,0,0-3.742-66.915c125.636-86.852,279.858-102.42,350.729-104.652-2.349,96.525-22.272,331.136-154.181,478.715ZM1044.409,187.163A1068.9643,1068.9643,0,0,1,1086.195,351.7c-41.234,14.342-83.483,33.3-124.234,58.328-12.979-49.97-30.874-96.828-50.99-139.619A851.9745,851.9745,0,0,1,1044.409,187.163Zm-337.3-75.044c51.638,61.017,159.893,206.45,187.168,380.648a.8246.8246,0,0,1,.022.083,516.199,516.199,0,0,1,6.339,79.735c0,207.983-134.216,390.067-193.573,460.409-59.357-70.342-193.584-252.426-193.584-460.409C513.476,364.532,647.8,182.387,707.105,112.119Zm-337.4,75.044a852.4866,852.4866,0,0,1,133.438,83.258c-20.116,42.779-38.01,89.637-50.99,139.607-40.751-25.028-83-43.986-124.234-58.328A1069.9167,1069.9167,0,0,1,369.7,187.163Zm64.725,318.508a613.3055,613.3055,0,0,0-3.731,66.915c0,202.833,103.762,377.367,177.348,475.653-101.852-10.807-262.112-47.617-370.176-168.5C106.368,732.612,86.241,497.553,83.759,400.944c70.819,2.149,224.719,17.587,350.666,104.727ZM101.107,1098.292c27.889-28.27,74.7-70.16,132.426-100.8,120.47,100.41,269.282,133.179,368.181,143.383a531.5691,531.5691,0,0,1-71.15,50.137,39.3552,39.3552,0,0,0-4.3,2.473c-44.835,25.436-96.8,44.579-151.732,44.579C255.559,1238.069,149.737,1147.441,101.107,1098.292Zm605.89,370.516c-33.225-41.007-87.5-118.4881-112.085-211.864,48.555-31.939,87.267-67.771,112.138-93.376,24.8709,25.606,63.582,61.438,112.127,93.364C794.628,1349.959,740.222,1427.681,706.997,1468.808Zm332.583-230.739c-89.24,0-171.062-50.9831-226.925-97.226,98.9-10.2259,247.56-43.032,367.9111-143.334,57.514,30.552,104.474,72.584,132.458,100.891C1264.535,1147.5861,1159.081,1238.069,1039.58,1238.069Z" transform="translate(-0.0613 0)"/></g></svg>