<svg id="Layer_1" data-name="Layer 1" xmlns="http://www.w3.org/2000/svg" viewBox="0 0 1175 800.9379"><defs><style>.cls-1{fill:#4d184c;}</style></defs><title>info_table</title><path class="cls-1" d="M720.1625,721.2909c-88.869,27.248-123.663,79.647-123.663,79.647v-108.99h326.973S832.0885,689.4319,720.1625,721.2909Zm-247.325,0c88.869,27.248,123.663,79.647,123.663,79.647v-108.99H269.5275s91.385-2.516,203.31,29.343Z" transform="translate(-9)"/><path class="cls-1" d="M479.917,75.086C563.698,49.4,596.498,0,596.498,0V102.749H288.25S374.401,105.121,479.917,75.086Zm233.162,0C629.299,49.4,596.498,0,596.498,0V102.749H904.75S818.595,105.121,713.079,75.086Z" transform="translate(-9)"/><path class="cls-1" d="M9,85.782H1184V707.43H9Z" transform="translate(-9)"/></svg>