<svg id="Layer_1" data-name="Layer 1" xmlns="http://www.w3.org/2000/svg" xmlns:xlink="http://www.w3.org/1999/xlink" viewBox="0 0 3119.9226 1218.8434"><defs><style>.cls-1{fill:none;}.cls-2{clip-path:url(#clip-path);}.cls-3{opacity:0.25;}.cls-4{fill:#f7daec;}</style><clipPath id="clip-path"><rect class="cls-1" y="-8.3742" width="3116.3171" height="1210.819"/></clipPath></defs><title>two_rom</title><g class="cls-2"><g class="cls-3"><path class="cls-4" d="M1238.2,819.4222c-78.0945-240.3038-337.1223-372.2733-577.41-294.2112a542.8848,542.8848,0,0,0-95.6367,42.2537A542.5573,542.5573,0,0,0,575.7866,463.456C575.7883,208.3368,399.5005,5.2178,148.1,5.2178c-251.7659,0-436.87,203.5686-436.87,458.2382a542.606,542.606,0,0,0,10.6328,104.0087,543.2,543.2,0,0,0-95.6369-42.2521c-240.2729-78.0767-499.3248,53.9058-577.41,294.21-79.19,243.7317,55.5484,515.158,294.2112,592.7089a543.0582,543.0582,0,0,0,102.2006,22.03,543.0832,543.0832,0,0,0-69.7341,77.8965c-148.512,204.4191-103.04,491.5551,101.3712,640.0687,204.3152,148.452,469.6924,103.715,618.69-101.376a543.1758,543.1758,0,0,0,52.5408-90.4056,542.7005,542.7005,0,0,0,52.5408,90.4056c149.1983,205.362,405.6274,249.51,609.506,101.376,204.4158-148.512,249.8945-435.653,101.3761-640.0688a542.8564,542.8564,0,0,0-69.7341-77.9079,543.6974,543.6974,0,0,0,102.2134-22.0253C1182.6569,1334.5835,1317.3825,1063.1572,1238.2,819.4222ZM148.1,136.145c171.9542,0,296.761,137.6536,296.761,327.3107,0,85.3611-33.4045,190.605-89.3553,281.5268a65.2085,65.2085,0,0,0-9.7,35.3523l-68.1694,117.977a332.427,332.427,0,0,0-64.9557-20.196V609.6827c0-36.1509-28.4381-65.46-64.589-65.46a65.4656,65.4656,0,0,0-65.46,65.46v268.435a324.8079,324.8079,0,0,0-65.5,20.8433l-76.103-124.6526a65.1992,65.1992,0,0,0-9.5243-29.3324c-55.9492-90.9218-89.3555-196.1656-89.3555-281.5267C-157.8366,276.8584-26.32,136.145,148.1,136.145ZM-616.5195,1287.616c-168.2211-54.6621-266.424-254.5381-210.15-427.7355C-770.894,688.2331-585.89,593.9628-414.2283,649.7254c70.4677,22.8985,147.4083,74.4054,211.7537,140.7959L-90.0567,974.6535a328.9473,328.9473,0,0,0-46.4737,62.8733l-255.473-83.0044a65.4622,65.4622,0,0,0-82.4883,42.0259,65.4624,65.4624,0,0,0,42.0256,82.4891l255.3724,82.9785a319.1483,319.1483,0,0,0,.1623,74.92l-163.5011,57.0449c-98.0041,20.5725-199.9093,18.3878-276.087-6.3642ZM82.63,1695.5338c-8.4644,105.7714-43.1432,209.6583-92.9864,278.2628-106.531,146.6193-290.134,178.26-435.82,72.4107-146.0076-106.0862-178.4871-311.1788-72.4057-457.1946,86.6726-119.3079,237.2264-173.5156,248.6464-180.9574l134.0569-46.7706a328.948,328.948,0,0,0,42.6188,58.3806l-157.9031,217.34a65.4622,65.4622,0,0,0,14.9291,91.3658,65.4624,65.4624,0,0,0,90.9867-14.4074L12.6113,1496.6807a324.4169,324.4169,0,0,0,70.0131,22.8854v175.97ZM148.1,1395.23c-108.4648,0-196.3929-87.9281-196.3929-196.3929S39.6349,1002.4438,148.1,1002.4438s196.3929,87.9281,196.3929,196.3929h0c-.12,108.4153-87.9775,196.2736-196.3929,196.3945Zm585.0886,650.9777c-150.4467,109.3113-323.5791,69.4208-426.6352-72.4107-49.8432-68.6043-85.3968-172.49-93.8693-278.2578V1519.571a331.8755,331.8755,0,0,0,70.8866-22.8854L441.43,1713.9692a65.4621,65.4621,0,0,0,105.9158-76.9584L389.4472,1419.68a329.0372,329.0372,0,0,0,42.3137-57.8531l122.0184,43.96c15.0411,11.1521,163.8745,62.1835,251.81,183.233,106.0962,146.0106,73.6118,351.1031-72.4007,457.188ZM632.4419,1294.9511l-159.3866-57.4262a318.9327,318.9327,0,0,0,.2354-75.514l255.3724-82.9784A65.4623,65.4623,0,0,0,688.2,954.5176L432.7266,1037.522a328.9544,328.9544,0,0,0-47.4118-63.8552L493.425,786.55c63.5372-64.4575,138.7735-114.3883,207.8161-136.8258,171.6345-55.7626,356.6611,38.5027,412.4414,210.1469,56.2722,173.2022-41.9307,373.0767-210.1518,427.7405h0C828.6419,1311.948,728.8936,1314.4184,632.4419,1294.9511Z"/></g><g class="cls-3"><path class="cls-4" d="M4067.2322,840.5223c-78.0945-240.3038-337.1223-372.2733-577.41-294.2112a542.8909,542.8909,0,0,0-95.637,42.2537,542.5581,542.5581,0,0,0,10.6328-104.0087c.0016-255.1193-176.2863-458.2382-427.6868-458.2382-251.7661,0-436.87,203.5685-436.87,458.2382a542.5989,542.5989,0,0,0,10.6329,104.0087,543.1948,543.1948,0,0,0-95.6368-42.2521c-240.273-78.0768-499.3249,53.9058-577.41,294.21-79.19,243.7317,55.5484,515.1579,294.2111,592.7088a543.0391,543.0391,0,0,0,102.2007,22.03,543.0666,543.0666,0,0,0-69.7341,77.8966c-148.512,204.419-103.04,491.5551,101.3713,640.0687,204.3151,148.4519,469.6924,103.715,618.6894-101.3761a543.1674,543.1674,0,0,0,52.5407-90.4055,542.7066,542.7066,0,0,0,52.5408,90.4055c149.1985,205.3621,405.6278,249.51,609.506,101.3761,204.416-148.512,249.8944-435.653,101.3761-640.0688a542.8639,542.8639,0,0,0-69.7343-77.908,543.6941,543.6941,0,0,0,102.2137-22.0252C4011.6884,1355.6835,4146.4137,1084.2573,4067.2322,840.5223ZM2977.1313,157.2451c171.9541,0,296.761,137.6535,296.761,327.3107,0,85.3611-33.4047,190.6049-89.3554,281.5268a65.207,65.207,0,0,0-9.7,35.3523L3106.668,919.4118a332.4326,332.4326,0,0,0-64.9558-20.196V630.7828c0-36.1509-28.438-65.46-64.5888-65.46a65.4653,65.4653,0,0,0-65.4606,65.46v268.435a324.7993,324.7993,0,0,0-65.5,20.8436L2770.06,795.4087a65.2,65.2,0,0,0-9.5241-29.3323C2704.5867,675.1546,2671.18,569.9107,2671.18,484.55,2671.1948,297.9585,2802.7116,157.2451,2977.1313,157.2451Zm-764.6192,1151.471c-168.2209-54.6621-266.4239-254.5382-210.15-427.7356,55.7756-171.6474,240.7794-265.9176,412.4413-210.155,70.4679,22.8985,147.4082,74.4053,211.7537,140.7959l112.418,184.1321a328.9353,328.9353,0,0,0-46.4737,62.8734l-255.4732-83.0045a65.4623,65.4623,0,0,0-40.4635,124.5148l255.3725,82.9785a319.1375,319.1375,0,0,0,.1623,74.92L2488.5981,1315.08c-98.003,20.5729-199.9083,18.3882-276.086-6.3638Zm699.1489,407.9178c-8.4643,105.7713-43.1432,209.6583-92.9864,278.2628-106.5312,146.6193-290.134,178.26-435.82,72.4106-146.0076-106.0862-178.4871-311.1788-72.4056-457.1945,86.6726-119.3079,237.2265-173.5156,248.6463-180.9574l134.057-46.7707a328.9318,328.9318,0,0,0,42.619,58.3806l-157.9034,217.34a65.4621,65.4621,0,0,0,105.9158,76.9585l157.8594-217.2835a324.43,324.43,0,0,0,70.0132,22.8854v175.97Zm65.47-300.3042c-108.4647,0-196.3929-87.9281-196.3929-196.3929s87.9282-196.3929,196.3929-196.3929,196.3929,87.928,196.3929,196.3929h0c-.12,108.4154-87.9775,196.2737-196.3929,196.3944ZM3562.22,2067.3073c-150.4469,109.3114-323.5792,69.4208-426.6351-72.4106-49.8432-68.6043-85.3969-172.49-93.8693-278.2579V1540.6711a331.8741,331.8741,0,0,0,70.8864-22.8855l157.8593,217.2837a65.4621,65.4621,0,0,0,105.9158-76.9585L3218.4787,1440.78a329.0358,329.0358,0,0,0,42.3137-57.8531l122.0184,43.96c15.0413,11.1522,163.8746,62.1836,251.81,183.233C3740.717,1756.13,3708.2324,1961.2227,3562.22,2067.3073Zm-100.7464-751.2565-159.3865-57.4263a318.9371,318.9371,0,0,0,.2353-75.5139l255.3723-82.9785a65.4623,65.4623,0,0,0-40.4633-124.5148l-255.4731,83.0044a328.949,328.949,0,0,0-47.412-63.8553l108.11-187.1169c63.5374-64.4575,138.7733-114.3883,207.8165-136.8259,171.6342-55.7626,356.6607,38.5027,412.4415,210.1469,56.2721,173.2023-41.9307,373.0767-210.1518,427.7405h0c-74.89,24.337-174.6375,26.8074-271.0892,7.34Z"/></g></g></svg>