<svg id="Layer_1" data-name="Layer 1" xmlns="http://www.w3.org/2000/svg" viewBox="0 0 342.2719 46.3391"><defs><style>.cls-1{fill:#8d0171;}</style></defs><title>naqsh_under_categories</title><path class="cls-1" d="M219.138,43.4935c6.6909,3.954,14.319,6.822,22.578,6.822,10.4669,0,20.275-5.966,20.275-15.176,0-6.875-4.758-13.3-13.4-18.1-8.5-4.724-19.7911-7.325-31.7861-7.325-12.937,0-30.2319,3.742-39.311,12.832a18.5382,18.5382,0,0,0-5.881,13.413c.013,10.527,9.575,19.38,23.3221,19.38h0c28.49,0,65.158-42.842,109.606-42.842,21.5,0,35.946,7.917,43.167,17.279a.6167.6167,0,0,0,.9719.05,8.5337,8.5337,0,0,0,2.5931-5.612c0-9.573-18.245-15.214-33.674-15.214-55.782,0-97.3171,40.151-126.621,40.151-9.2731,0-17.892-4.525-17.892-13.1939a17.1208,17.1208,0,0,1,5.45-12.37c3.975-3.979,10.054-7.248,17.58-9.451a75.6991,75.6991,0,0,1,20.688-2.948c10.33,0,20.032,2.536,27.318,7.139,7.166,4.528,11.112,10.5,11.112,16.815,0,8.5239-8.385,13.7-15.193,13.7l1.672.007c-6.753,0-13.774-2.039-20.87-6.062" transform="translate(-9.001 -9.0005)"/><path class="cls-1" d="M140.552,43.8345c-6.5491,3.7769-13.974,6.481-21.994,6.481-10.468,0-20.275-5.966-20.275-15.176,0-6.875,4.758-13.3,13.4-18.1,8.5-4.724,19.792-7.325,31.786-7.325,12.938,0,30.233,3.742,39.312,12.8319A18.5422,18.5422,0,0,1,188.662,35.96c-.013,10.5269-9.576,19.38-23.322,19.38h0c-28.49,0-65.158-42.842-109.606-42.842-21.5,0-35.947,7.917-43.167,17.279a.6172.6172,0,0,1-.972.05,8.5361,8.5361,0,0,1-2.594-5.612c0-9.573,18.245-15.214,33.674-15.214,55.783,0,97.3171,40.151,126.622,40.151,9.2731,0,17.891-4.5251,17.891-13.1941a17.1172,17.1172,0,0,0-5.45-12.37c-3.975-3.979-10.054-7.2479-17.58-9.4509a75.6947,75.6947,0,0,0-20.689-2.948c-10.329,0-20.031,2.536-27.318,7.1389-7.1659,4.5281-11.112,10.5-11.112,16.815,0,8.524,8.3851,13.7,15.192,13.7l-1.671.007c6.7521,0,13.774-2.039,20.869-6.062" transform="translate(-9.001 -9.0005)"/></svg>