<svg id="Layer_1" data-name="Layer 1" xmlns="http://www.w3.org/2000/svg" xmlns:xlink="http://www.w3.org/1999/xlink" viewBox="0 0 3119.9227 1389.6556"><defs><style>.cls-1{fill:none;}.cls-2{clip-path:url(#clip-path);}.cls-3{opacity:0.25;}.cls-4{fill:#f7daec;}</style><clipPath id="clip-path" transform="translate(600.0451 -8.3742)"><rect class="cls-1" width="1920" height="746"/></clipPath></defs><title>two_rom</title><g class="cls-2"><g class="cls-3"><path class="cls-4" d="M762.87,510.0152c-48.115-148.054-207.7051-229.362-355.7491-181.267a334.4753,334.4753,0,0,0-58.9229,26.033,334.2713,334.2713,0,0,0,6.551-64.081C354.75,133.5182,246.137,8.3742,91.246,8.3742c-155.116,0-269.161,125.421-269.161,282.326a334.3032,334.3032,0,0,0,6.551,64.081,334.67,334.67,0,0,0-58.923-26.032c-148.035-48.104-307.64,33.212-355.749,181.266-48.79,150.166,34.224,317.395,181.267,365.175a334.581,334.581,0,0,0,62.967,13.573,334.6037,334.6037,0,0,0-42.964,47.993c-91.5,125.945-63.484,302.8529,62.456,394.3539,125.881,91.463,289.3831,63.9,381.182-62.459a334.6579,334.6579,0,0,0,32.371-55.7,334.3659,334.3659,0,0,0,32.371,55.7c91.9229,126.526,249.9119,153.726,375.5239,62.459,125.943-91.5,153.963-268.411,62.459-394.354a334.463,334.463,0,0,0-42.964-48,334.9783,334.9783,0,0,0,62.9749-13.57C728.649,827.4122,811.655,660.1832,762.87,510.0152ZM91.246,89.04c105.943,0,182.838,84.81,182.838,201.66,0,52.592-20.5809,117.434-55.0529,173.452a40.1755,40.1755,0,0,0-5.976,21.781l-42,72.687a204.8131,204.8131,0,0,0-40.02-12.443V380.7922c0-22.273-17.521-40.331-39.794-40.331a40.3341,40.3341,0,0,0-40.331,40.331v165.386A200.116,200.116,0,0,0,10.555,559.02l-46.888-76.8a40.17,40.17,0,0,0-5.868-18.072c-34.471-56.018-55.053-120.86-55.053-173.452C-97.245,175.7352-16.216,89.04,91.246,89.04Zm-471.091,709.435c-103.643-33.678-164.147-156.824-129.476-263.533,34.364-105.754,148.347-163.835,254.11-129.479,43.416,14.108,90.82,45.842,130.464,86.746l69.262,113.446a202.6652,202.6652,0,0,0-28.633,38.737l-157.4-51.14A40.3321,40.3321,0,0,0-292.34,619.1447a40.3322,40.3322,0,0,0,25.8925,50.8225l157.338,51.124a196.6292,196.6292,0,0,0,.1,46.159l-100.735,35.146C-270.126,815.0712-332.911,813.7252-379.845,798.4752Zm430.754,251.323c-5.215,65.167-26.581,129.173-57.29,171.4411-65.635,90.3339-178.755,109.828-268.514,44.613-89.957-65.361-109.968-191.721-44.61-281.683,53.4-73.507,146.158-106.905,153.194-111.49l82.594-28.816a202.6691,202.6691,0,0,0,26.258,35.969l-97.286,133.9059a40.3321,40.3321,0,0,0,9.198,56.2916,40.3322,40.3322,0,0,0,56.058-8.8766L7.77,927.2822a199.8792,199.8792,0,0,0,43.1359,14.1v108.417Zm40.337-185.021a121,121,0,1,1,121-121h0a121.1351,121.1351,0,0,1-121,121.001Zm360.48,401.0751c-92.692,67.348-199.3609,42.771-262.855-44.613-30.709-42.268-52.614-106.273-57.834-171.438V941.3852a204.4715,204.4715,0,0,0,43.6741-14.1L271.97,1061.1563a40.332,40.332,0,0,0,65.256-47.415l-97.283-133.9a202.7249,202.7249,0,0,0,26.07-35.644l75.177,27.084c9.267,6.871,100.965,38.312,155.1429,112.892,65.3671,89.9589,45.3531,216.3189-44.6069,281.6789ZM389.655,802.9942l-98.2-35.381a196.4978,196.4978,0,0,0,.145-46.525l157.338-51.124a40.3321,40.3321,0,0,0-24.93-76.7151l-157.4,51.14a202.6731,202.6731,0,0,0-29.211-39.342l66.608-115.285c39.146-39.713,85.5-70.476,128.038-84.3,105.746-34.356,219.7431,23.722,254.11,129.474,34.67,106.712-25.834,229.857-129.477,263.536h0C510.5361,813.4662,449.08,814.9882,389.655,802.9942Z" transform="translate(600.0451 -8.3742)"/></g><g class="cls-3"><path class="cls-4" d="M2505.87,523.0152c-48.115-148.054-207.7051-229.362-355.749-181.267a334.48,334.48,0,0,0-58.923,26.033,334.2633,334.2633,0,0,0,6.551-64.081c.0009-157.182-108.612-282.326-263.503-282.326-155.1161,0-269.161,125.421-269.161,282.326a334.2952,334.2952,0,0,0,6.551,64.081,334.6727,334.6727,0,0,0-58.923-26.032c-148.035-48.104-307.64,33.212-355.749,181.266-48.79,150.166,34.224,317.395,181.267,365.175a334.5793,334.5793,0,0,0,62.967,13.573,334.5918,334.5918,0,0,0-42.964,47.993c-91.5,125.945-63.484,302.8529,62.456,394.3539,125.881,91.463,289.383,63.9,381.1819-62.459a334.6579,334.6579,0,0,0,32.371-55.7,334.3729,334.3729,0,0,0,32.371,55.7c91.923,126.526,249.912,153.726,375.5239,62.459,125.943-91.5,153.963-268.411,62.459-394.354a334.457,334.457,0,0,0-42.964-48,334.981,334.981,0,0,0,62.975-13.57C2471.6489,840.4122,2554.6549,673.1832,2505.87,523.0152ZM1834.246,102.04c105.943,0,182.838,84.81,182.838,201.66,0,52.592-20.581,117.434-55.053,173.452a40.1755,40.1755,0,0,0-5.976,21.781l-42,72.687a204.8121,204.8121,0,0,0-40.02-12.443V393.7922c0-22.273-17.521-40.331-39.794-40.331a40.334,40.334,0,0,0-40.331,40.331v165.386a200.1149,200.1149,0,0,0-40.3551,12.842l-46.888-76.8a40.17,40.17,0,0,0-5.8679-18.072c-34.4711-56.018-55.0531-120.86-55.0531-173.452C1645.7549,188.7352,1726.7839,102.04,1834.246,102.04Zm-471.091,709.435c-103.643-33.678-164.147-156.824-129.476-263.533,34.364-105.754,148.347-163.835,254.11-129.479,43.4161,14.108,90.82,45.842,130.464,86.746l69.2621,113.446a202.661,202.661,0,0,0-28.633,38.737l-157.4-51.14a40.332,40.332,0,1,0-24.93,76.715l157.338,51.124a196.6238,196.6238,0,0,0,.1,46.159l-100.7351,35.146C1472.874,828.0712,1410.089,826.7252,1363.155,811.4752Zm430.7539,251.323c-5.215,65.167-26.581,129.173-57.29,171.4411-65.6351,90.3339-178.755,109.828-268.5141,44.613-89.957-65.361-109.968-191.721-44.61-281.683,53.4-73.507,146.1581-106.905,153.194-111.49l82.5941-28.816a202.6591,202.6591,0,0,0,26.258,35.969l-97.2861,133.9059a40.332,40.332,0,0,0,65.256,47.415l97.259-133.871a199.8818,199.8818,0,0,0,43.136,14.1v108.417Zm40.337-185.021a121,121,0,1,1,121-121h0a121.135,121.135,0,0,1-121,121.001Zm360.48,401.0751c-92.6921,67.348-199.361,42.771-262.855-44.613-30.709-42.268-52.614-106.273-57.834-171.438V954.3852a204.4725,204.4725,0,0,0,43.674-14.1l97.259,133.8711a40.332,40.332,0,0,0,65.256-47.415l-97.2831-133.9a202.7249,202.7249,0,0,0,26.07-35.644l75.177,27.084c9.2671,6.871,100.965,38.312,155.143,112.892,65.3671,89.9589,45.353,216.3189-44.6069,281.6789Zm-62.071-462.8581-98.2-35.381a196.5031,196.5031,0,0,0,.145-46.525l157.338-51.124a40.3321,40.3321,0,0,0-24.93-76.7151l-157.4,51.14a202.669,202.669,0,0,0-29.211-39.342l66.608-115.285c39.146-39.713,85.5-70.476,128.0381-84.3,105.7459-34.356,219.743,23.722,254.11,129.474,34.67,106.712-25.834,229.857-129.4771,263.536h0C2253.536,826.4662,2192.08,827.9882,2132.655,815.9942Z" transform="translate(600.0451 -8.3742)"/></g></g></svg>