<svg id="Layer_1" data-name="Layer 1" xmlns="http://www.w3.org/2000/svg" viewBox="0 0 68.535 71.129"><defs><style>.cls-1{fill:#fff;stroke:#fff;}</style></defs><title>zoom-in</title><path class="cls-1" d="M37.533,26.952H29.598V19.017a1.323,1.323,0,0,0-2.645,0v7.936H19.017a1.323,1.323,0,1,0-.0727,2.645c.0242.0007.0485.0007.0727,0h7.936v7.936a1.323,1.323,0,1,0,2.645.0727c.0007-.0242.0007-.0485,0-.0727v-7.94h7.936a1.323,1.323,0,0,0,0-2.645Z" transform="translate(0.0575 0.0496)"/><path class="cls-1" d="M67.585,68.315,47.932,47.876a27.8,27.8,0,1,0-1.955,1.783l19.7,20.489a1.323,1.323,0,0,0,1.9549-1.7831q-.0233-.0256-.0479-.05ZM3.145,28.275A25.13,25.13,0,1,1,28.28,53.4h-.005A25.158,25.158,0,0,1,3.145,28.275Z" transform="translate(0.0575 0.0496)"/></svg>