<svg id="Layer_1" data-name="Layer 1" xmlns="http://www.w3.org/2000/svg" viewBox="0 0 92.7 92.7"><defs><style>.cls-1{fill:#4d184c;}.cls-2{fill:#fff;}</style></defs><title>fb</title><g id="Group_322" data-name="Group 322"><circle id="Ellipse_12" data-name="Ellipse 12" class="cls-1" cx="46.35" cy="46.35" r="46.35"/><g id="icons4"><path id="Path_123" data-name="Path 123" class="cls-2" d="M49.663,46.782V71.319H39.85V46.798H34.898V36.964h4.878v-.477c.019-1.718-.049-3.445.077-5.157a9.5244,9.5244,0,0,1,3.343-6.958A9.3762,9.3762,0,0,1,48.26,22.357a19.8561,19.8561,0,0,1,2.148-.105h6.831a3.282,3.282,0,0,1,.452.022v8.392H52.428a2.0769,2.0769,0,0,0-2.387,2.253c-.04,1.238,0,2.5,0,3.752,0,.31.1729.294.3809.294H57.851c-.31,3.3-.6191,6.547-.91,9.822Z"/></g></g></svg>