<svg id="Layer_1" data-name="Layer 1" xmlns="http://www.w3.org/2000/svg" viewBox="0 0 92.7 92.7"><defs><style>.cls-1{fill:#4d184c;}.cls-2{fill:#fff;}</style></defs><title>instagram</title><g id="Group_321" data-name="Group 321"><circle id="Ellipse_12" data-name="Ellipse 12" class="cls-1" cx="46.35" cy="46.35" r="46.35"/><g id="icons3"><path id="Path_115" data-name="Path 115" class="cls-2" d="M47.008,23.67c3.833,0,7.666-.043,11.5.013a10.0118,10.0118,0,0,1,9.019,5.368,9.73,9.73,0,0,1,1.251,4.934v23.006a10.318,10.318,0,0,1-8.858,10.16,11.2833,11.2833,0,0,1-1.474.1H35.386a10.3441,10.3441,0,0,1-10-8.372,12.6284,12.6284,0,0,1-.1879-2.11q-.0221-11.3381,0-22.674a10.3149,10.3149,0,0,1,8.512-10.278,8.6277,8.6277,0,0,1,1.6109-.148C39.195,23.6533,43.1,23.67,47.008,23.67Zm0,2.574H35.735a9.0886,9.0886,0,0,0-1.38.089,7.7409,7.7409,0,0,0-6.608,7.768V56.7722a9.6749,9.6749,0,0,0,.1181,1.474,7.7358,7.7358,0,0,0,7.5159,6.442H58.57a6.6832,6.6832,0,0,0,.867-.054,7.7547,7.7547,0,0,0,6.78-7.741V34.2223a10.6731,10.6731,0,0,0-.1229-1.611,7.7339,7.7339,0,0,0-7.344-6.37C54.8221,26.2263,50.916,26.2443,47.008,26.2443Z"/><path id="Path_116" data-name="Path 116" class="cls-2" d="M46.9571,59.5052a14.219,14.219,0,1,1,.005,0Zm11.15-14.06a11.48,11.48,0,1,0-.0022.069v-.068Z"/><path id="Path_117" data-name="Path 117" class="cls-2" d="M60.748,34.0183a2.268,2.268,0,1,1,2.2681-2.268,2.268,2.268,0,0,1-2.2681,2.268Z"/></g></g></svg>