<svg id="Layer_1" data-name="Layer 1" xmlns="http://www.w3.org/2000/svg" xmlns:xlink="http://www.w3.org/1999/xlink" viewBox="0 0 92.7 92.7"><defs><style>.cls-1{fill:none;}.cls-2{clip-path:url(#clip-path);}.cls-3{fill:#4d184c;}.cls-4{fill:#fff;}</style><clipPath id="clip-path"><rect class="cls-1" width="92.699" height="92.699"/></clipPath></defs><title>phone</title><g class="cls-2"><g id="Repeat_Grid_1" data-name="Repeat Grid 1"><g id="Group_323" data-name="Group 323"><circle id="Ellipse_12" data-name="Ellipse 12" class="cls-3" cx="46.35" cy="46.35" r="46.35"/><g id="icons2"><path id="Path_127" data-name="Path 127" class="cls-4" d="M26.021,34.9775c.054-3.088,1.671-5,4.211-6.25a5.79,5.79,0,0,1,2.976-.73,3.7812,3.7812,0,0,1,2.389,1.289,27.4066,27.4066,0,0,1,5.242,7.126,4.6,4.6,0,0,1,.467,1.394,2.5318,2.5318,0,0,1-.811,2.266,8.2816,8.2816,0,0,1-1.158.923c-1.8,1.228-2.289,2.644-1.482,4.682a16.7562,16.7562,0,0,0,5.192,6.921,20.4793,20.4793,0,0,0,4.884,2.879,3.0359,3.0359,0,0,0,4.1505-1.0989l.0335-.0591a4.468,4.468,0,0,1,2.775-2.011,4.0371,4.0371,0,0,1,2.938.56c1.656,1.046,3.262,2.166,4.86,3.3a21.6428,21.6428,0,0,1,2.208,1.826,2.9222,2.9222,0,0,1,.8,3.219,7.9183,7.9183,0,0,1-1.961,3.158,9.3575,9.3575,0,0,1-4.787,2.806,5.0607,5.0607,0,0,1-3.065-.428,54.6136,54.6136,0,0,1-17.9-11.7,51.3,51.3,0,0,1-11.326-17.147,10.5169,10.5169,0,0,1-.494-1.683A11.876,11.876,0,0,1,26.021,34.9775Z"/><path id="Path_128" data-name="Path 128" class="cls-4" d="M47.673,27.5115a18.7,18.7,0,0,1,17.483,14.792,32.3339,32.3339,0,0,1,.347,4.416.892.892,0,0,1-.969,1.081c-.726.019-1.054-.282-1.139-1.038-.123-1.085-.193-2.181-.386-3.254a17.5372,17.5372,0,0,0-3.517-8.2,14.8222,14.8222,0,0,0-7.207-4.632,22.9337,22.9337,0,0,0-5.508-1.158,3.1692,3.1692,0,0,1-.5-.081.811.811,0,0,1-.73-.869,1.007,1.007,0,0,1,.791-1.058,4.1732,4.1732,0,0,1,.695-.035C47.24,27.4805,47.457,27.5005,47.673,27.5115Z"/><path id="Path_129" data-name="Path 129" class="cls-4" d="M60.616,44.0135a9.7833,9.7833,0,0,1-.073,1.2c-.073.506-.347.691-.961.722s-.88-.143-.988-.625-.12-1.008-.208-1.505a16.0287,16.0287,0,0,0-1.309-4.37,8.289,8.289,0,0,0-5.246-4.246c-1.247-.386-2.536-.637-3.81-.942-.822-.2-1.108-.672-.857-1.463a.884.884,0,0,1,1.019-.683,12.9749,12.9749,0,0,1,3.984.772,12.3741,12.3741,0,0,1,8.076,8.39,21.9465,21.9465,0,0,1,.459,2.725Z"/><path id="Path_130" data-name="Path 130" class="cls-4" d="M50.05,36.95a6.51,6.51,0,0,1,5.894,6.307c-.035.865-.421,1.278-1.158,1.231-.548-.035-.869-.386-.95-1.058a5.3455,5.3455,0,0,0-.953-2.667,4.6,4.6,0,0,0-3.088-1.671c-.151-.027-.3-.054-.452-.093-.44-.112-.834-.282-.853-.822a1.1,1.1,0,0,1,.888-1.158A6.3609,6.3609,0,0,1,50.05,36.95Z"/></g></g></g></g></svg>