<svg id="Layer_1" data-name="Layer 1" xmlns="http://www.w3.org/2000/svg" viewBox="0 0 1380.226 1419.9992"><defs><style>.cls-1{fill:#f7daec;stroke:#707070;opacity:0.2;isolation:isolate;}</style></defs><title>rose</title><path class="cls-1" d="M1289.826,709.021c8.5479-19.418,17.1689-38.742,25.0179-56.334,44.923-100.669,44.712-101.533,42.1381-112.1-34.638-142.151-181.021-208.859-217.949-223.61-19.452-45.849-55.825-97.69-123.71-136.836C903.246,115.511,859.941,18.863,859.536,17.943A22.9851,22.9851,0,0,0,842.257,4.4c-2.482-.417-61.611-10.1-131.041,2.758C650.681,18.375,601.08,43.311,564.294,80.471c-39.499-31.86-93.17-43.56-131.335-47.743-37.881-4.153-75.1-2.375-84.082.671a23.5521,23.5521,0,0,0-15.242,16.632c-5.51,23.314-22.673,49.554-39.272,74.934-26.244,40.115-53.312,81.52-47.415,125.855C153.754,300.004,54.976,392.867,40.191,406.993a22.96,22.96,0,0,0-5.863,9.161c-.775,2.253-19.038,56.006-28.377,127.593-12.758,97.852-2.88,178.44,29.361,239.518.959,1.82,2,3.567,2.994,5.3481C8.826,842.562,20.218,891.749,30.289,935.171c7.846,33.823,14.619,63.03,3.567,92.3421a23.2568,23.2568,0,0,0,2.05,20.378c8.238,13.2,115.49,89.823,228.388,101.552a165.4759,165.4759,0,0,0,7.5,23.121c25.692,62.6,87.975,112.524,185.122,148.3719,49.711,18.3431,84.836,35.751,115.824,51.105,38.3709,19.011,71.5,35.432,114.951,43.927a192.4194,192.4194,0,0,0,36.973,3.543c58.939,0,121.356-26.035,179.3-75.464,11.606-9.9,28.214-19.6,45.794-29.857,60.3919-35.2481,142.718-83.39,138.0229-206.3851,10.57-5.826,20.9351-12.081,31.043-18.983a23.0033,23.0033,0,0,0,5.112,3.981,54.5052,54.5052,0,0,0,27.4,7.5789c40.584,0,80.264-46.821,118.8609-92.3659,28.938-34.148,61.737-72.85,88.4161-83.512,6.838-2.737,18.6429-10.454,20.816-31.414,4.459-42.873-34.283-140.2-89.6-184.068Zm21.107-162.91c-4.9,13.519-22.422,52.7849-38.071,87.843-23.314,52.248-43.6491,98.22-58.041,133.667-2.522-7.855-5.121-15.759-7.742-23.712-12.8-38.88-26.0379-79.084-31.166-118.938q-7.25-56.361-30.629-96.924c17.129-44.856,21.2209-100.065,11.487-152.029C1206.5251,402.258,1286.62,456.973,1310.933,546.111Zm-298.494,547.8c-46.6,21.907-99.412,46.738-153.061,93.8411-69.2,60.753-156.819,39.9-213.9-6.8371a247.116,247.116,0,0,0,43.287-40.526c53.9-6.776,109.146-26.1059,161.214-57.333,94.686-56.7779,166.893-146.209,198.111-245.354,40.271-127.906-2.617-268.043-70.4-357.357,24.1.582,59.883,5.949,90.7729,28.7,33.86,24.938,54.673,65.914,61.86,121.794,5.682,44.206,19.618,86.5251,33.1,127.4521,20.886,63.438,40.62,123.3579,21.2569,172.25-40.1,101.248-98.4129,128.66-172.238,163.371ZM280.811,962.868c-19.59-42.533-43.952-70.554-65.445-95.275-29.59-34.034-52.966-60.919-60.566-117.209-17.6-130.379,64.406-256.228,150.5-308.446,23.7-14.374,46.033-22.036,64.471-22.676C319.705,475.13,263.993,567.429,265.826,658.036c1.1,54.575,22.9,99.538,64.78,133.646a270.0238,270.0238,0,0,0,34.185,23.767c-13.105,40.581-7.067,100.457,16.663,155.335,19.992,46.238,70.162,128.635,181.524,160.9221a290.3716,290.3716,0,0,0,57.82,10.4079c-32.879,24.776-70.364,35.19-110.443,30.3111-86.936-10.58-174.889-90.88-229.54-209.558ZM401.934,226.26c37.007-28.018,113.516-66.533,210.1-9.709,69.917,41.139,137.7,56.754,192.162,69.3,74.98,17.27,114.822,28.41,130.17,74.106,10.23,30.47-9.862,50.511-19.241,57.881-47.434-34.267-98.239-44.47-143.2359-28.116a254.1876,254.1876,0,0,0-82.125-50.387c-93.856-35.818-201.626-19.449-279.226,41.24-28.582-12.109-64.514-9.225-103.059,8.26,1.848-56.245,46.517-126.284,94.457-162.574Zm173.841,861.3c-93.264-27.044-135.347-96.2-152.133-135.016-19.995-46.2441-23.292-90.7-16.672-117.58a224.8047,224.8047,0,0,0,30.9,8.3821c24.167,60.046,86.194,108.347,157.994,121.875a225.7106,225.7106,0,0,0,41.862,3.938c73.043,0,143.285-35.987,197.443-102.486,62.681-76.966,120.722-182.707,16-320.291-6.225-44.537-21.745-84.413-45.264-117.841,42.159-5.121,80.959,23.308,102.024,42.723,78.986,72.825,136.6069,224.633,96.311,352.625-27.89,88.569-92.7311,168.661-177.9,219.736-83.282,49.947-174.61,65.9511-250.561,43.934ZM428.432,425.403c64.56-57.066,163-74.388,244.943-43.118,32.781,12.51,83.276,40.878,112.349,102a262.4877,262.4877,0,0,0-122.8889-43.731c-58.022-5.109-112.6211,11-149.84,44.216-67.566,60.304-92.331,134.422-67.931,203.346,17.276,48.822,58.121,87.837,102.943,101.214-46.348,16.781-116.943,24.881-188.376-33.286-30.933-25.189-47.032-58.476-47.847-98.928-1.238-61.2529,39.223-163.273,116.649-231.713Zm163.04,328.018a66.072,66.072,0,0,1,35-116.961,66.7715,66.7715,0,0,1,6.847-.349,66.078,66.078,0,1,1-41.847,117.31Zm41.516,60.827a113.78,113.78,0,0,0,11.609-.595A112.043,112.043,0,1,0,521.73,713.594c.352,3.451.877,6.859,1.532,10.224A123.727,123.727,0,0,1,488.4,672.777c-18.113-51.182,1.493-105.772,55.209-153.717,27.785-24.8,69.758-36.722,115.184-32.717,59.276,5.235,114.8,35.628,152.332,83.393,84.2,107.139,56.251,184.586-11.6,267.9079-73.208,89.893-153.677,90.215-195.144,82.4-47.853-9.0171-89.933-36.839-112.986-72.813,7.169-.34,14.368-.987,21.591-2.01a263.5447,263.5447,0,0,0,95.5-33.706,111.3791,111.3791,0,0,0,24.5019,2.732ZM718.333,52.6c44.917-8.508,85.866-6.182,104.96-4.263,16.182,30.7,66.524,112.5,169.066,171.628,75.828,43.728,105.005,105.746,116.127,150.076a253.2577,253.2577,0,0,1,1.8879,114.083,176.0061,176.0061,0,0,0-14.65-12.1c-48.1-35.426-103.709-38.717-133.119-37.442,16.179-21.058,27.886-51.89,15.333-89.262-24.252-72.209-88.747-87.064-163.426-104.267-54.069-12.455-115.352-26.572-179.167-64.121-22.986-13.525-45.062-22.64-66.074-28.349,30.2-50.685,80.2-82.942,149.062-95.983ZM332.838,150.134c15.554-23.78,31.546-48.227,40.759-73.631,32.113-1.468,114.028,1.232,161.768,39.689a243.3527,243.3527,0,0,0-14.313,24.794c-65.363-2.758-116.639,25.75-146.861,48.623a282.4165,282.4165,0,0,0-34.347,30.85c-14.573.546-30.449,4.128-47.041,9.948,3.457-24.282,21.306-51.642,40.035-80.273ZM76.135,436.304c12.894-12,54.075-49.554,102.958-86.356,52.5-39.523,90.607-60.851,117.8-72.056-26.642,45.8-39.9,95.82-33.682,136.763C169.721,481.09,90.04,614.338,109.238,756.537c3.5,25.91,10.031,47.185,18.416,65.5-21.453-15.511-38.576-35.438-51.629-60.131-60.787-115-10.056-292.92.11-325.6ZM75.081,924.791c-7.647-32.974-14.438-62.307-5.348-92.881,28.322,30.3351,65.022,51.917,109.692,64.409.417.4781.834.959,1.247,1.4371,20.424,23.492,41.546,47.78,58.381,84.343a569.765,569.765,0,0,0,34.215,63.4779c-.31.542-.613,1.0881-.883,1.6611-6.73,14.3489-11.888,33.572-12.832,55.3249-78.216-10.978-150.757-55.7581-177.678-75.087,8.64-36.128.809-69.892-6.795-102.686Zm851.513,349.7c-19.4,11.324-37.734,22.024-52.457,34.5859-59.353,50.63-122.423,72.577-177.613,61.78-37.3871-7.3089-66.5-21.7349-103.363-40-32.018-15.8659-68.311-33.85-120.32-53.0419-83.387-30.77-138.2-73.2-158.507-122.7a116.6827,116.6827,0,0,1-7.806-62.335,422.9506,422.9506,0,0,0,49.64,52.7c46.517,41.307,97.908,66.4,148.624,72.577a201.8516,201.8516,0,0,0,24.411,1.4931,191.6192,191.6192,0,0,0,73.923-14.757c.285.3.555.6.858.889,36.026,33.663,83.3,56.8271,129.7,63.5451a203.2862,203.2862,0,0,0,29.161,2.133c46.579,0,89.982-16.691,126.864-49.07,48.764-42.812,96.311-65.167,142.292-86.786q4.818-2.2662,9.611-4.53c-5.547,79.6-61.112,112.045-115.0151,143.5079Zm308.5351-296.2c-20.651,24.3709-48.954,57.777-69.427,70.533,23.357-25.091,44.292-57.388,61.706-101.365,13.12-33.121,13.58-67.1,7.742-102.027a22.8327,22.8327,0,0,0,3.524-7.975c3.334-14.9249,16.21-47.286,31.963-84.239,38.653,37.7,63.505,109.266,63.3581,131.982-34.4972,17.141-67.1862,55.711-98.8663,93.096Z" transform="translate(-0.0519 -0.0119)"/></svg>