<svg id="Layer_1" data-name="Layer 1" xmlns="http://www.w3.org/2000/svg" viewBox="0 0 1637.3002 933.8178"><defs><style>.cls-1{opacity:0.55;}.cls-2{opacity:0.5;}.cls-3{fill:#f7daec;}</style></defs><title>lotus</title><g class="cls-1"><g class="cls-2"><path class="cls-3" d="M684.606,549.924C784.5,420.81,776.392,216.613,775.988,207.8c-.64-13.923-9.886-25.038-21.458-25.808-3.466-.233-52.535-3.113-113.936,11.922C628.483,119.085,607.262,65.326,606.256,62.8c-5.017-12.569-17.088-18.582-28.033-13.965-2.2.926-48.774,20.876-101.3,63.463C442.474,49.715,406.2,10.078,403.319,6.979c-8.629-9.305-21.7-9.305-30.336,0-2.878,3.1-39.155,42.736-73.608,105.323-52.522-42.586-99.1-62.544-101.3-63.47-10.939-4.61-23.016,1.4-28.033,13.965-1.007,2.529-22.233,56.288-34.339,131.124-61.4-15.035-110.476-12.157-113.941-11.929C10.193,182.761.953,193.877.314,207.807c-.409,8.806-8.511,213,91.382,342.117C40.8,583.818,7.48,628.1,5.834,630.31c-7.729,10.388-7.729,26.113,0,36.5,3.619,4.859,89.83,119,199.625,119,28.529,0,55.454-7.717,79.767-19.211,25.272,92.1,84.944,157.209,87.751,160.244a19.9866,19.9866,0,0,0,30.342,0c2.813-3.028,62.473-68.144,87.751-160.237,24.3131,11.486,51.237,19.2,79.767,19.2,109.8,0,196.013-114.138,199.631-119,7.73-10.388,7.73-26.1129,0-36.5C768.817,628.094,735.489,583.81,684.606,549.924Zm-38.692-30.516c-59.157,71.164-147.269,92.974-203.3,99.4441C483.042,560.777,539.99,457.713,539.99,337.96a389.312,389.312,0,0,0-2.056-39.53c69.0239-51.308,153.753-60.5,192.69-61.823C729.33,293.629,718.384,432.225,645.914,519.408ZM573.49,110.271a670.328,670.328,0,0,1,22.957,97.2,339.4523,339.4523,0,0,0-68.254,34.458,498.9007,498.9007,0,0,0-28.014-82.48A463.8385,463.8385,0,0,1,573.49,110.271ZM388.175,65.939c28.37,36.046,87.845,121.961,102.83,224.868.006.015.006.027.012.049a327.4058,327.4058,0,0,1,3.483,47.1c0,122.866-73.738,230.4321-106.349,271.987C355.54,568.392,281.8,460.826,281.8,337.96,281.8,215.052,355.593,107.45,388.175,65.939ZM202.806,110.271a464.1281,464.1281,0,0,1,73.311,49.185A498.5884,498.5884,0,0,0,248.1,241.929a339.413,339.413,0,0,0-68.254-34.458A670.9288,670.9288,0,0,1,202.806,110.271Zm35.56,188.158a389.3118,389.3118,0,0,0-2.05,39.53c0,119.824,57.007,222.93,97.435,280.992-55.957-6.3839-144-28.13-203.374-99.544C58.131,432.5,47.074,293.634,45.711,236.563c38.907,1.269,123.459,10.389,192.655,61.867ZM55.241,648.521C70.563,631.82,96.28,607.074,128,588.976c66.186,59.317,147.943,78.675,202.278,84.7a293.0507,293.0507,0,0,1-39.09,29.619,21.3038,21.3038,0,0,0-2.364,1.461c-24.632,15.026-53.18,26.3351-83.362,26.3351C140.1,731.094,81.958,677.556,55.241,648.521ZM388.116,867.4c-18.254-24.225-48.075-70-61.58-125.159,26.676-18.868,47.944-40.0349,61.608-55.162,13.664,15.1271,34.932,36.294,61.6,55.155C436.261,797.193,406.37,843.108,388.116,867.4ZM570.837,731.094c-49.028,0-93.981-30.118-124.672-57.437,54.335-6.041,136.009-25.421,202.13-84.675,31.6,18.049,57.4,42.879,72.772,59.6C694.427,677.642,636.491,731.094,570.837,731.094Z" transform="translate(-0.0001 -0.0002)"/></g><g class="cls-2"><path class="cls-3" d="M1545.6061,549.924c99.894-129.114,91.786-333.311,91.3819-342.124-.64-13.923-9.8859-25.038-21.458-25.808-3.466-.233-52.5349-3.113-113.9359,11.922-12.1111-74.829-33.332-128.588-34.3381-131.114-5.017-12.569-17.088-18.582-28.033-13.965-2.2.926-48.774,20.876-101.3,63.463C1303.4741,49.715,1267.2,10.078,1264.3191,6.979c-8.629-9.305-21.7-9.305-30.336,0-2.878,3.1-39.155,42.736-73.608,105.323-52.522-42.586-99.1-62.544-101.3-63.47-10.939-4.61-23.016,1.4-28.033,13.965-1.0071,2.529-22.233,56.288-34.3391,131.124-61.4-15.035-110.4759-12.157-113.941-11.929-11.5689.769-20.8089,11.885-21.4479,25.815-.409,8.806-8.511,213,91.382,342.117C901.8,583.818,868.48,628.1,866.8341,630.31c-7.729,10.388-7.729,26.113,0,36.5,3.619,4.859,89.83,119,199.625,119,28.529,0,55.454-7.717,79.767-19.211,25.272,92.1,84.944,157.209,87.751,160.244a19.987,19.987,0,0,0,30.342,0c2.813-3.028,62.473-68.144,87.751-160.237,24.313,11.486,51.237,19.2,79.767,19.2,109.8,0,196.013-114.138,199.631-119,7.73-10.388,7.73-26.1129,0-36.5C1629.8171,628.094,1596.4891,583.81,1545.6061,549.924Zm-38.692-30.516c-59.157,71.164-147.269,92.974-203.3,99.4441,40.428-58.0751,97.376-161.1391,97.376-280.892a389.3121,389.3121,0,0,0-2.0561-39.53c69.024-51.308,153.753-60.5,192.69-61.823C1590.33,293.629,1579.384,432.225,1506.9141,519.408ZM1434.49,110.271a670.3411,670.3411,0,0,1,22.957,97.2,339.45,339.45,0,0,0-68.254,34.458,498.8918,498.8918,0,0,0-28.0141-82.48A463.8439,463.8439,0,0,1,1434.49,110.271ZM1249.175,65.939c28.37,36.046,87.8451,121.961,102.83,224.868.006.015.006.027.012.049a327.42,327.42,0,0,1,3.483,47.1c0,122.866-73.738,230.4321-106.349,271.987C1216.54,568.392,1142.8,460.826,1142.8,337.96,1142.8,215.052,1216.593,107.45,1249.175,65.939Zm-185.3689,44.332a464.1327,464.1327,0,0,1,73.311,49.185,498.5884,498.5884,0,0,0-28.017,82.473,339.4156,339.4156,0,0,0-68.254-34.458A670.9157,670.9157,0,0,1,1063.8061,110.271Zm35.56,188.158a389.254,389.254,0,0,0-2.05,39.53c0,119.824,57.007,222.93,97.4349,280.992-55.957-6.3839-144-28.13-203.374-99.544-72.2459-86.907-83.3029-225.773-84.6659-282.844,38.907,1.269,123.459,10.389,192.655,61.867ZM916.2411,648.521c15.322-16.701,41.039-41.447,72.759-59.545,66.186,59.317,147.943,78.675,202.278,84.7a293.0571,293.0571,0,0,1-39.09,29.619,21.2945,21.2945,0,0,0-2.364,1.461c-24.632,15.026-53.18,26.3351-83.362,26.3351C1001.1,731.094,942.9581,677.556,916.2411,648.521ZM1249.1161,867.4c-18.254-24.225-48.0751-70-61.58-125.159,26.676-18.868,47.944-40.0349,61.608-55.162,13.664,15.1271,34.932,36.294,61.6,55.155C1297.261,797.193,1267.37,843.108,1249.1161,867.4ZM1431.837,731.094c-49.028,0-93.981-30.118-124.672-57.437,54.335-6.041,136.009-25.421,202.13-84.675,31.6,18.049,57.4,42.879,72.7721,59.6C1555.4271,677.642,1497.4911,731.094,1431.837,731.094Z" transform="translate(-0.0001 -0.0002)"/></g></g></svg>