<svg xmlns="http://www.w3.org/2000/svg" width="3206.362" height="1603.181" viewBox="0 0 3206.362 1603.181">
  <g id="Group_327" data-name="Group 327" transform="translate(582.181 -1395.409)" opacity="0.2">
    <g id="Group_308" data-name="Group 308" transform="translate(-586.181 -170.591)">
      <g id="Group_327-2" data-name="Group 327">
        <g id="Group_306" data-name="Group 306" transform="translate(4 1566)">
          <path id="Path_391" data-name="Path 391" d="M1050.387-35.509H971.625l-78.762,66.8L814.1-35.509H735.338l157.525,133.6Z" transform="translate(-91.272 35.509)" fill="#f2d9d3"/>
          <path id="Path_392" data-name="Path 392" d="M1350.387-35.509h-78.763l-78.762,66.8-78.762-66.8h-78.762l157.525,133.6Z" transform="translate(9.523 35.509)" fill="#f2d9d3"/>
          <path id="Path_393" data-name="Path 393" d="M332.009-35.509l-78.762,66.8v66.8l157.525-133.6Z" transform="translate(-253.247 35.509)" fill="#f2d9d3"/>
          <path id="Path_394" data-name="Path 394" d="M750.387-35.509H671.625l-78.762,66.8L514.1-35.509H435.338l157.525,133.6Z" transform="translate(-192.067 35.509)" fill="#f2d9d3"/>
          <path id="Path_395" data-name="Path 395" d="M1335.338-35.509l157.525,133.6V31.29l-78.762-66.8Z" transform="translate(110.319 35.509)" fill="#f2d9d3"/>
          <path id="Path_396" data-name="Path 396" d="M1455.632,157.233l-200.4-169.959-200.4,169.959L854.44-12.726l-200.4,169.959L453.644-12.726l-200.4,169.959v66.8l200.4-169.959,200.4,169.959L854.44,54.073l200.4,169.959,200.4-169.959,200.4,169.959,200.4-169.959,200.4,169.959v-66.8L1656.03-12.726Z" transform="translate(-253.247 43.164)" fill="#f7e8e0"/>
          <path id="Path_397" data-name="Path 397" d="M1455.632,257.233l-200.4-169.959-200.4,169.959L854.44,87.274l-200.4,169.959L453.644,87.274l-200.4,169.959v66.8l200.4-169.959,200.4,169.959,200.4-169.959,200.4,169.959,200.4-169.959,200.4,169.959,200.4-169.959,200.4,169.959v-66.8L1656.03,87.274Z" transform="translate(-253.247 76.763)" fill="#d9e8e8"/>
          <path id="Path_398" data-name="Path 398" d="M1455.632,357.233l-200.4-169.959-200.4,169.959L854.44,187.274l-200.4,169.959-200.4-169.959-200.4,169.959v66.8l200.4-169.959,200.4,169.959,200.4-169.959,200.4,169.959,200.4-169.959,200.4,169.959,200.4-169.959,200.4,169.959v-66.8l-200.4-169.959Z" transform="translate(-253.247 110.361)" fill="#b0d2d2"/>
          <path id="Path_399" data-name="Path 399" d="M1455.632,457.233l-200.4-169.959-200.4,169.959L854.44,287.274l-200.4,169.959-200.4-169.959-200.4,169.959v66.8l200.4-169.959,200.4,169.959,200.4-169.959,200.4,169.959,200.4-169.959,200.4,169.959,200.4-169.959,200.4,169.959v-66.8l-200.4-169.959Z" transform="translate(-253.247 143.96)" fill="#f7e8e0"/>
          <path id="Path_400" data-name="Path 400" d="M1455.632,557.233l-200.4-169.959-200.4,169.959L854.44,387.274l-200.4,169.959-200.4-169.959-200.4,169.959v66.8l200.4-169.959,200.4,169.959,200.4-169.959,200.4,169.959,200.4-169.959,200.4,169.959,200.4-169.959,200.4,169.959v-66.8l-200.4-169.959Z" transform="translate(-253.247 177.558)" fill="#b0d2d2"/>
          <path id="Path_401" data-name="Path 401" d="M1455.632,657.233l-200.4-169.959-200.4,169.959L854.44,487.274l-200.4,169.959-200.4-169.959-200.4,169.959v66.8l200.4-169.959,200.4,169.959,200.4-169.959,200.4,169.959,200.4-169.959,200.4,169.959,200.4-169.959,200.4,169.959v-66.8l-200.4-169.959Z" transform="translate(-253.247 211.156)" fill="#d9e8e8"/>
          <path id="Path_402" data-name="Path 402" d="M1455.632,757.233l-200.4-169.959-200.4,169.959L854.44,587.274l-200.4,169.959-200.4-169.959-200.4,169.959v66.8l200.4-169.959,200.4,169.959,200.4-169.959,200.4,169.959,200.4-169.959,200.4,169.959,200.4-169.959,200.4,169.959v-66.8l-200.4-169.959Z" transform="translate(-253.247 244.755)" fill="#d9e8e8"/>
          <path id="Path_403" data-name="Path 403" d="M1455.632,857.233l-200.4-169.959-200.4,169.959L854.44,687.274l-200.4,169.959-200.4-169.959-200.4,169.959v66.8l200.4-169.959,200.4,169.959,200.4-169.959,200.4,169.959,200.4-169.959,200.4,169.959,200.4-169.959,200.4,169.959v-66.8l-200.4-169.959Z" transform="translate(-253.247 278.353)" fill="#f7e8e0"/>
          <path id="Path_404" data-name="Path 404" d="M1455.632,957.233l-200.4-169.959-200.4,169.959L854.44,787.274l-200.4,169.959-200.4-169.959-200.4,169.959v66.8l200.4-169.959,200.4,169.959,200.4-169.959,200.4,169.959,200.4-169.959,200.4,169.959,200.4-169.959,200.4,169.959v-66.8l-200.4-169.959Z" transform="translate(-253.247 311.952)" fill="#f7e8e0"/>
          <path id="Path_405" data-name="Path 405" d="M1455.632,1057.233l-200.4-169.959-200.4,169.959L854.44,887.274l-200.4,169.959-200.4-169.959-200.4,169.959v66.8l200.4-169.959,200.4,169.959,200.4-169.959,200.4,169.959,200.4-169.959,200.4,169.959,200.4-169.959,200.4,169.959v-66.8l-200.4-169.959Z" transform="translate(-253.247 345.55)" fill="#d9e8e8"/>
          <path id="Path_406" data-name="Path 406" d="M1455.632,1157.233l-200.4-169.959-200.4,169.959L854.44,987.274l-200.4,169.959-200.4-169.959-200.4,169.959v66.8l200.4-169.959,200.4,169.959,200.4-169.959,200.4,169.959,200.4-169.959,200.4,169.959,200.4-169.959,200.4,169.959v-66.8l-200.4-169.959Z" transform="translate(-253.247 379.149)" fill="#b0d2d2"/>
          <path id="Path_407" data-name="Path 407" d="M1212.2,1190.434h78.763l42.873-36.361,42.873,36.361h78.762l-121.635-103.16Z" transform="translate(68.947 412.747)" fill="#f2d9d3"/>
          <path id="Path_408" data-name="Path 408" d="M612.2,1190.434h78.762l42.873-36.361,42.873,36.361h78.763l-121.635-103.16Z" transform="translate(-132.644 412.747)" fill="#f2d9d3"/>
          <path id="Path_409" data-name="Path 409" d="M312.2,1190.434h78.762l42.873-36.361,42.873,36.361h78.762l-121.635-103.16Z" transform="translate(-233.439 412.747)" fill="#f2d9d3"/>
          <path id="Path_410" data-name="Path 410" d="M912.2,1190.434h78.762l42.873-36.361,42.873,36.361h78.762l-121.635-103.16Z" transform="translate(-31.848 412.747)" fill="#f2d9d3"/>
        </g>
        <g id="Group_307" data-name="Group 307" transform="translate(1607.181 1566)">
          <path id="Path_391-2" data-name="Path 391" d="M1050.387-35.509H971.625l-78.762,66.8L814.1-35.509H735.338l157.525,133.6Z" transform="translate(-91.272 35.509)" fill="#f2d9d3"/>
          <path id="Path_392-2" data-name="Path 392" d="M1350.387-35.509h-78.763l-78.762,66.8-78.762-66.8h-78.762l157.525,133.6Z" transform="translate(9.523 35.509)" fill="#f2d9d3"/>
          <path id="Path_393-2" data-name="Path 393" d="M332.009-35.509l-78.762,66.8v66.8l157.525-133.6Z" transform="translate(-253.247 35.509)" fill="#f2d9d3"/>
          <path id="Path_394-2" data-name="Path 394" d="M750.387-35.509H671.625l-78.762,66.8L514.1-35.509H435.338l157.525,133.6Z" transform="translate(-192.067 35.509)" fill="#f2d9d3"/>
          <path id="Path_395-2" data-name="Path 395" d="M1335.338-35.509l157.525,133.6V31.29l-78.762-66.8Z" transform="translate(110.319 35.509)" fill="#f2d9d3"/>
          <path id="Path_396-2" data-name="Path 396" d="M1455.632,157.233l-200.4-169.959-200.4,169.959L854.44-12.726l-200.4,169.959L453.644-12.726l-200.4,169.959v66.8l200.4-169.959,200.4,169.959L854.44,54.073l200.4,169.959,200.4-169.959,200.4,169.959,200.4-169.959,200.4,169.959v-66.8L1656.03-12.726Z" transform="translate(-253.247 43.164)" fill="#f7e8e0"/>
          <path id="Path_397-2" data-name="Path 397" d="M1455.632,257.233l-200.4-169.959-200.4,169.959L854.44,87.274l-200.4,169.959L453.644,87.274l-200.4,169.959v66.8l200.4-169.959,200.4,169.959,200.4-169.959,200.4,169.959,200.4-169.959,200.4,169.959,200.4-169.959,200.4,169.959v-66.8L1656.03,87.274Z" transform="translate(-253.247 76.763)" fill="#d9e8e8"/>
          <path id="Path_398-2" data-name="Path 398" d="M1455.632,357.233l-200.4-169.959-200.4,169.959L854.44,187.274l-200.4,169.959-200.4-169.959-200.4,169.959v66.8l200.4-169.959,200.4,169.959,200.4-169.959,200.4,169.959,200.4-169.959,200.4,169.959,200.4-169.959,200.4,169.959v-66.8l-200.4-169.959Z" transform="translate(-253.247 110.361)" fill="#b0d2d2"/>
          <path id="Path_399-2" data-name="Path 399" d="M1455.632,457.233l-200.4-169.959-200.4,169.959L854.44,287.274l-200.4,169.959-200.4-169.959-200.4,169.959v66.8l200.4-169.959,200.4,169.959,200.4-169.959,200.4,169.959,200.4-169.959,200.4,169.959,200.4-169.959,200.4,169.959v-66.8l-200.4-169.959Z" transform="translate(-253.247 143.96)" fill="#f7e8e0"/>
          <path id="Path_400-2" data-name="Path 400" d="M1455.632,557.233l-200.4-169.959-200.4,169.959L854.44,387.274l-200.4,169.959-200.4-169.959-200.4,169.959v66.8l200.4-169.959,200.4,169.959,200.4-169.959,200.4,169.959,200.4-169.959,200.4,169.959,200.4-169.959,200.4,169.959v-66.8l-200.4-169.959Z" transform="translate(-253.247 177.558)" fill="#b0d2d2"/>
          <path id="Path_401-2" data-name="Path 401" d="M1455.632,657.233l-200.4-169.959-200.4,169.959L854.44,487.274l-200.4,169.959-200.4-169.959-200.4,169.959v66.8l200.4-169.959,200.4,169.959,200.4-169.959,200.4,169.959,200.4-169.959,200.4,169.959,200.4-169.959,200.4,169.959v-66.8l-200.4-169.959Z" transform="translate(-253.247 211.156)" fill="#d9e8e8"/>
          <path id="Path_402-2" data-name="Path 402" d="M1455.632,757.233l-200.4-169.959-200.4,169.959L854.44,587.274l-200.4,169.959-200.4-169.959-200.4,169.959v66.8l200.4-169.959,200.4,169.959,200.4-169.959,200.4,169.959,200.4-169.959,200.4,169.959,200.4-169.959,200.4,169.959v-66.8l-200.4-169.959Z" transform="translate(-253.247 244.755)" fill="#d9e8e8"/>
          <path id="Path_403-2" data-name="Path 403" d="M1455.632,857.233l-200.4-169.959-200.4,169.959L854.44,687.274l-200.4,169.959-200.4-169.959-200.4,169.959v66.8l200.4-169.959,200.4,169.959,200.4-169.959,200.4,169.959,200.4-169.959,200.4,169.959,200.4-169.959,200.4,169.959v-66.8l-200.4-169.959Z" transform="translate(-253.247 278.353)" fill="#f7e8e0"/>
          <path id="Path_404-2" data-name="Path 404" d="M1455.632,957.233l-200.4-169.959-200.4,169.959L854.44,787.274l-200.4,169.959-200.4-169.959-200.4,169.959v66.8l200.4-169.959,200.4,169.959,200.4-169.959,200.4,169.959,200.4-169.959,200.4,169.959,200.4-169.959,200.4,169.959v-66.8l-200.4-169.959Z" transform="translate(-253.247 311.952)" fill="#f7e8e0"/>
          <path id="Path_405-2" data-name="Path 405" d="M1455.632,1057.233l-200.4-169.959-200.4,169.959L854.44,887.274l-200.4,169.959-200.4-169.959-200.4,169.959v66.8l200.4-169.959,200.4,169.959,200.4-169.959,200.4,169.959,200.4-169.959,200.4,169.959,200.4-169.959,200.4,169.959v-66.8l-200.4-169.959Z" transform="translate(-253.247 345.55)" fill="#d9e8e8"/>
          <path id="Path_406-2" data-name="Path 406" d="M1455.632,1157.233l-200.4-169.959-200.4,169.959L854.44,987.274l-200.4,169.959-200.4-169.959-200.4,169.959v66.8l200.4-169.959,200.4,169.959,200.4-169.959,200.4,169.959,200.4-169.959,200.4,169.959,200.4-169.959,200.4,169.959v-66.8l-200.4-169.959Z" transform="translate(-253.247 379.149)" fill="#b0d2d2"/>
          <path id="Path_407-2" data-name="Path 407" d="M1212.2,1190.434h78.763l42.873-36.361,42.873,36.361h78.762l-121.635-103.16Z" transform="translate(68.947 412.747)" fill="#f2d9d3"/>
          <path id="Path_408-2" data-name="Path 408" d="M612.2,1190.434h78.762l42.873-36.361,42.873,36.361h78.763l-121.635-103.16Z" transform="translate(-132.644 412.747)" fill="#f2d9d3"/>
          <path id="Path_409-2" data-name="Path 409" d="M312.2,1190.434h78.762l42.873-36.361,42.873,36.361h78.762l-121.635-103.16Z" transform="translate(-233.439 412.747)" fill="#f2d9d3"/>
          <path id="Path_410-2" data-name="Path 410" d="M912.2,1190.434h78.762l42.873-36.361,42.873,36.361h78.762l-121.635-103.16Z" transform="translate(-31.848 412.747)" fill="#f2d9d3"/>
        </g>
      </g>
    </g>
  </g>
</svg>
