<svg id="Layer_1" data-name="Layer 1" xmlns="http://www.w3.org/2000/svg" viewBox="0 0 56.406 56.406"><defs><style>.cls-1{fill:#8d0171;}.cls-2{fill:#fff;}</style></defs><title>link</title><circle class="cls-1" cx="28.203" cy="28.203" r="28.203"/><path class="cls-2" d="M39.893,27.141l-5.3,5.3a7.4,7.4,0,0,1-11.734-1.513l2.463-2.462a1.7661,1.7661,0,0,1,.4-.265,3.6867,3.6867,0,0,0,.925,1.59,3.75,3.75,0,0,0,5.3,0l5.3-5.3a3.7477,3.7477,0,0,0-5.3-5.3h0L30.06,21.079a9.4,9.4,0,0,0-4.78-.52l4.015-4.015a7.4953,7.4953,0,0,1,10.6,10.6h0ZM25.882,35.849l-1.885,1.89a3.7477,3.7477,0,0,1-5.3-5.3h0l5.3-5.3a3.749,3.749,0,0,1,5.3,0,3.7075,3.7075,0,0,1,.926,1.588,1.8029,1.8029,0,0,0,.4-.264l2.462-2.461a7.3648,7.3648,0,0,0-1.138-1.512A7.493,7.493,0,0,0,21.35,24.4867l-.0033.0033-5.3,5.3a7.4953,7.4953,0,0,0,10.6,10.6l4.016-4.016A9.3994,9.3994,0,0,1,25.882,35.849Z"/></svg>