<svg id="Layer_1" data-name="Layer 1" xmlns="http://www.w3.org/2000/svg" viewBox="0 0 478.593 50.745"><defs><style>.cls-1{fill:#8d0171;}</style></defs><title>under_why_our_restaurant</title><path class="cls-1" d="M449.4735,25.337c19.632,0,32.112,9.607,36.692,19.179l1.43-.783c-5.9-12.916-22.4-24.733-48.948-24.733-47.008,0-105.635,34.408-152.976,34.408-19.633,0-32.07-10.129-36.65-19.7l-1.4.751c5.9,12.916,22.333,25.286,48.879,25.286C343.5045,59.743,402.1325,25.337,449.4735,25.337Z" transform="translate(-9.0025 -9)"/><path class="cls-1" d="M210.9265,15.337c19.632,0,32.112,9.607,36.692,19.179l1.43-.783C243.1485,20.817,226.6485,9,200.1005,9c-47.008,0-105.635,34.408-152.976,34.408-19.633,0-32.112-9.607-36.692-19.179l-1.43.783c5.9,12.916,22.4,24.733,48.948,24.733C104.9575,49.743,163.5855,15.337,210.9265,15.337Z" transform="translate(-9.0025 -9)"/></svg>