<svg id="Layer_1" data-name="Layer 1" xmlns="http://www.w3.org/2000/svg" viewBox="0 0 536.0005 108.417"><defs><style>.cls-1{fill:#fff;opacity:0.9;isolation:isolate;}</style></defs><title>main under slogan</title><path id="Path_6-2" data-name="Path 6-2" class="cls-1" d="M277.003,114.415a81.6073,81.6073,0,0,1-32.485-7.226,111.6693,111.6693,0,0,1-28.677-18.3c-17.87-15.655-28.537-34.65-28.537-50.815a31.02,31.02,0,0,1,8.988-22.451c6.427-6.3,15.807-9.625,27.125-9.625,67.549,0,227.73,107.244,314.23,32.347a1.6,1.6,0,0,1,2.488.172c9.575,11.718,5.045,28.741-13.732,36.736C459.383,103.797,285.43,14.58,237.373,14.58c-23.2,0-34.262,14.185-34.262,30.225,0,23.4,18.194,47.46,42.8839,58.985a72.9527,72.9527,0,0,0,62.02,0c24.689-11.525,42.8809-35.583,42.8809-58.985,0-16.04-11.065-30.225-34.26-30.225-48.059,0-222.012,89.217-289.03,60.6729C8.83,67.2579,4.2969,50.2349,13.8739,38.517a1.6,1.6,0,0,1,2.488-.172c86.5,74.9,246.68-32.347,314.23-32.347,11.318,0,20.7,3.327,27.125,9.625a31.02,31.02,0,0,1,8.988,22.451c0,16.165-10.6681,35.16-28.5381,50.815a111.6989,111.6989,0,0,1-28.677,18.3A81.6058,81.6058,0,0,1,277.003,114.415Z" transform="translate(-9.0039 -5.998)"/></svg>