<svg id="Layer_1" data-name="Layer 1" xmlns="http://www.w3.org/2000/svg" xmlns:xlink="http://www.w3.org/1999/xlink" viewBox="0 0 1920 118"><defs><style>.cls-1{fill:none;}.cls-2{clip-path:url(#clip-path);}.cls-3{fill:#4d184c;}.cls-4{clip-path:url(#clip-path-2);}.cls-5{opacity:0.9;}.cls-6{fill:#fff;}</style><clipPath id="clip-path"><rect class="cls-1" width="1920" height="118"/></clipPath><clipPath id="clip-path-2"><rect class="cls-1" width="1920" height="119"/></clipPath></defs><title>pattern</title><g class="cls-2"><g id="Group_33" data-name="Group 33"><path id="Path_346-2" data-name="Path 346-2" class="cls-3" d="M0,0H1920V118H0Z"/><g class="cls-4"><g id="Mask_Group_1" data-name="Mask Group 1"><g id="Group_20" data-name="Group 20"><g id="Group_18" data-name="Group 18" class="cls-5"><path id="Path_15" data-name="Path 15" class="cls-6" d="M863.66-11.424H827.348c7.3,3.041,14.5171,6.247,21.611,9.7C868.757,7.927,887,20.044,906.045,30.948,921.417,39.752,941.44,48.426,960,47.253V32.847c-9.612-5.881-17.788-13.758-27.333-19.753C911.875.036,887.654-6.273,863.66-11.424Z"/><path id="Path_17" data-name="Path 17" class="cls-6" d="M896.733-11.424c18.007,5.568,35.197,13.09,50.374,24.581,4.283,3.242,8.504,6.625,12.893,9.661V2.468c-8.693-5.192-17.334-10.47-26.96-13.892Z"/><path id="Path_23" data-name="Path 23" class="cls-6" d="M896.733,139.324H933.04c9.626-3.422,18.268-8.7,26.96-13.892v-20.35c-4.389,3.037-8.61,6.418-12.893,9.661C931.93,126.234,914.74,133.756,896.733,139.324Z"/><path id="Path_24" data-name="Path 24" class="cls-6" d="M942.96,81.788c-15.267,2.9-29,10.431-42.113,18.2-9.6469,5.711-19.174,11.624-28.867,17.271a387.1628,387.1628,0,0,1-44.8,22.065H863.652a326.9815,326.9815,0,0,0,39.362-10.53,142.3992,142.3992,0,0,0,33.873-16.757c7.857-5.415,14.966-11.97,23.113-16.982V80.837A63.74,63.74,0,0,0,942.96,81.788Z"/><path id="Path_97" data-name="Path 97" class="cls-6" d="M172.892,93.257c15.175-11.491,32.368-19.013,50.375-24.581H186.96c-11.413,4.058-21.441,10.723-31.811,16.761-10.018,5.831-20.5,10.742-32.013,13.1a96.3426,96.3426,0,0,1-25.869,1.707c10.158,8.14,22.606,13.39,36.117,12.868C149.436,112.491,160.919,102.322,172.892,93.257Z"/><path id="Path_98" data-name="Path 98" class="cls-6" d="M219.153,108.015c9.65-5.715,19.174-11.627,28.864-17.274a387.14,387.14,0,0,1,44.8-22.065H256.348a326.8444,326.8444,0,0,0-39.361,10.53,142.3746,142.3746,0,0,0-33.87,16.763c-10.042,6.913-18.854,15.71-30.187,20.748a51.8206,51.8206,0,0,1-13.837,3.966c11.057,6.769,25.211,7.947,37.95,5.529C192.307,123.314,206.042,115.776,219.153,108.015Z"/><path id="Path_99" data-name="Path 99" class="cls-6" d="M256.34,59.424h36.312c-7.3-3.041-14.517-6.247-21.611-9.7-19.798-9.652-38.045-21.768-57.089-32.673-21.481-12.3-52.049-24.362-75.007-9.63a53.38,53.38,0,0,1,18.289,6.114c10.849,5.986,19.65,14.81,30.1,21.372C208.125,47.964,232.346,54.272,256.34,59.424Z"/><path id="Path_100" data-name="Path 100" class="cls-6" d="M186.96,59.424h36.307c-18.007-5.572-35.2-13.091-50.375-24.581-11.973-9.066-23.456-19.235-39.513-19.855-13.512-.523-25.958,4.728-36.112,12.864a96.3754,96.3754,0,0,1,25.87,1.71c11.511,2.358,21.994,7.27,32.013,13.1C165.521,48.698,175.547,55.366,186.96,59.424Z"/><path id="Path_101" data-name="Path 101" class="cls-6" d="M56.555,49.052c-16.866-.314-32.24,6.982-46.555,15,14.315,8.017,29.69,15.313,46.555,15,16.573-.31,32.35-8.123,47.391-15C88.904,57.175,73.127,49.361,56.555,49.052Z"/><path id="Path_102" data-name="Path 102" class="cls-6" d="M167.659,68.713q-4.356-.2831-8.719-.471c-15.341.335-30.781-.23-46.081.76C99.027,75.086,84.776,82.45,69.793,85.63a88.8566,88.8566,0,0,0,55.164,4.1C140.659,85.712,153.739,76.405,167.659,68.713Z"/><path id="Path_103" data-name="Path 103" class="cls-6" d="M158.94,59.858q4.3631-.192,8.719-.472c-13.92-7.692-27-17-42.7-21.016a88.8552,88.8552,0,0,0-55.164,4.1c14.981,3.182,29.234,10.544,43.064,16.628C128.159,60.087,143.599,59.522,158.94,59.858Z"/><path id="Path_104" data-name="Path 104" class="cls-6" d="M303.989,64.048l.009.066c.046-.018.09-.036.136-.054l-.139-.054Z"/><path id="Path_105" data-name="Path 105" class="cls-6" d="M644.851,5.337C634.48-.699,624.453-7.366,613.038-11.424h-36.3c18,5.568,35.1921,13.09,50.37,24.581,11.974,9.066,23.4571,19.234,39.514,19.855,13.51.522,25.958-4.728,36.116-12.868a96.3752,96.3752,0,0,1-25.874-1.706C665.352,16.076,654.87,11.167,644.851,5.337Z"/><path id="Path_106" data-name="Path 106" class="cls-6" d="M661.051,40.576a53.38,53.38,0,0,1-18.286-6.11c-10.849-5.986-19.65-14.81-30.1-21.372C591.875.036,567.651-6.273,543.66-11.424H507.351c7.3,3.041,14.517,6.247,21.611,9.7,19.8,9.646,38.045,21.763,57.086,32.667C607.525,43.25,638.093,55.31,661.051,40.576Z"/><path id="Path_107" data-name="Path 107" class="cls-6" d="M675.043,9.629A88.855,88.855,0,0,0,730.207,5.53c-14.983-3.181-29.236-10.545-43.066-16.628-15.303-.99-30.74-.425-46.081-.76q-4.3629.193-8.719.471C646.261-3.695,659.337,5.612,675.043,9.629Z"/><path id="Path_114" data-name="Path 114" class="cls-6" d="M660.91,87.317c-11.057-6.769-25.211-7.948-37.95-5.529-15.2671,2.9-29,10.431-42.113,18.2-9.65,5.715-19.174,11.628-28.867,17.275a387.1722,387.1722,0,0,1-44.8,22.065h36.472a327.01,327.01,0,0,0,39.358-10.535,142.4031,142.4031,0,0,0,33.877-16.758c10.041-6.917,18.8531-15.714,30.186-20.752A51.8243,51.8243,0,0,1,660.91,87.317Z"/><path id="Path_115" data-name="Path 115" class="cls-6" d="M641.06,139.758c15.341-.335,30.778.23,46.081-.76,13.832-6.084,28.083-13.446,43.066-16.628a88.8553,88.8553,0,0,0-55.164-4.1c-15.706,4.018-28.782,13.324-42.7,21.016Q636.6971,139.57,641.06,139.758Z"/><path id="Path_116" data-name="Path 116" class="cls-6" d="M666.621,94.888c-16.057.62-27.54,10.789-39.513,19.854-15.178,11.491-32.37,19.01-50.37,24.582h36.3c11.413-4.058,21.4409-10.723,31.81-16.761,10.018-5.831,20.5-10.742,32.013-13.1a96.3411,96.3411,0,0,1,25.877-1.711C692.58,99.617,680.132,94.365,666.621,94.888Z"/><path id="Path_194" data-name="Path 194" class="cls-6" d="M423.946,64.049c-15.042-6.874-30.819-14.688-47.392-14.997-16.865-.314-32.239,6.982-46.554,15,14.315,8.017,29.69,15.313,46.554,15C393.128,78.742,408.904,70.925,423.946,64.049Z"/><path id="Path_195" data-name="Path 195" class="cls-6" d="M576.348,68.676a326.8444,326.8444,0,0,0-39.361,10.53,142.3728,142.3728,0,0,0-33.87,16.763c-10.046,6.913-18.858,15.707-30.19,20.748a51.8254,51.8254,0,0,1-13.837,3.966c11.057,6.769,25.211,7.947,37.95,5.529,15.267-2.9,29-10.431,42.113-18.2,9.65-5.712,19.174-11.624,28.864-17.271a387.1722,387.1722,0,0,1,44.8-22.065Z"/><path id="Path_196" data-name="Path 196" class="cls-6" d="M623.989,64.048l.009.066c.046-.018.09-.036.136-.054l-.139-.054Z"/><path id="Path_197" data-name="Path 197" class="cls-6" d="M444.959,89.729c15.7-4.017,28.78-13.324,42.7-21.016q-4.356-.2831-8.719-.471c-15.341.335-30.781-.23-46.081.76-13.832,6.084-28.083,13.448-43.066,16.628A88.8563,88.8563,0,0,0,444.959,89.729Z"/><path id="Path_198" data-name="Path 198" class="cls-6" d="M432.859,59.098c15.3.99,30.74.425,46.081.76q4.363-.192,8.719-.472c-13.92-7.692-27-17-42.7-21.016a88.8552,88.8552,0,0,0-55.164,4.1C404.776,45.652,419.029,53.014,432.859,59.098Z"/><path id="Path_199" data-name="Path 199" class="cls-6" d="M458.952,7.42a53.3784,53.3784,0,0,1,18.282,6.115c10.849,5.986,19.65,14.81,30.1,21.372,20.791,13.057,45.012,19.365,69.006,24.517h36.312c-7.3-3.041-14.5171-6.247-21.611-9.7-19.798-9.652-38.045-21.768-57.089-32.673C512.474,4.749,481.906-7.311,458.952,7.42Z"/><path id="Path_200" data-name="Path 200" class="cls-6" d="M506.96,59.424h36.307c-18.007-5.572-35.2-13.091-50.374-24.581-11.974-9.066-23.457-19.235-39.514-19.855-13.512-.523-25.958,4.728-36.112,12.864a96.3751,96.3751,0,0,1,25.87,1.71c11.511,2.358,21.994,7.27,32.013,13.1C485.521,48.698,495.547,55.366,506.96,59.424Z"/><path id="Path_201" data-name="Path 201" class="cls-6" d="M453.379,113.112c16.057-.621,27.54-10.79,39.514-19.855,15.174-11.491,32.367-19.013,50.374-24.581H506.96c-11.413,4.058-21.441,10.723-31.811,16.761-10.018,5.831-20.5,10.742-32.013,13.1a96.3423,96.3423,0,0,1-25.869,1.707C427.421,108.384,439.867,113.634,453.379,113.112Z"/><path id="Path_202" data-name="Path 202" class="cls-6" d="M341.051,40.576a53.3813,53.3813,0,0,1-18.286-6.11c-10.849-5.986-19.65-14.81-30.1-21.372C271.875.036,247.651-6.273,223.66-11.424H187.351c7.3,3.041,14.517,6.247,21.611,9.7,19.8,9.646,38.045,21.763,57.086,32.667C287.525,43.25,318.093,55.31,341.051,40.576Z"/><path id="Path_204" data-name="Path 204" class="cls-6" d="M355.043,9.629A88.8559,88.8559,0,0,0,410.207,5.53c-14.983-3.181-29.236-10.545-43.066-16.628-15.303-.99-30.74-.425-46.081-.76q-4.363.193-8.719.471C326.261-3.695,339.337,5.612,355.043,9.629Z"/><path id="Path_205" data-name="Path 205" class="cls-6" d="M324.851,5.337C314.48-.699,304.453-7.366,293.038-11.424h-36.3c18,5.568,35.192,13.09,50.37,24.581,11.974,9.066,23.457,19.234,39.514,19.855,13.51.522,25.958-4.728,36.116-12.868a96.3752,96.3752,0,0,1-25.874-1.706C345.352,16.076,334.87,11.167,324.851,5.337Z"/><path id="Path_207" data-name="Path 207" class="cls-6" d="M260.847,99.984c-9.65,5.715-19.174,11.628-28.867,17.275a387.1481,387.1481,0,0,1-44.8,22.065h36.472a327.0031,327.0031,0,0,0,39.358-10.531,142.4049,142.4049,0,0,0,33.877-16.758c10.041-6.917,18.853-15.714,30.186-20.752a51.8243,51.8243,0,0,1,13.837-3.966c-11.057-6.769-25.211-7.948-37.95-5.529C287.692,84.685,273.958,92.219,260.847,99.984Z"/><path id="Path_210" data-name="Path 210" class="cls-6" d="M367.141,138.998c13.832-6.084,28.083-13.446,43.066-16.628a88.8559,88.8559,0,0,0-55.164-4.1c-15.706,4.018-28.782,13.324-42.7,21.016q4.356.2831,8.719.471C336.401,139.422,351.838,139.987,367.141,138.998Z"/><path id="Path_213" data-name="Path 213" class="cls-6" d="M293.038,139.324c11.413-4.058,21.441-10.723,31.81-16.761,10.018-5.831,20.5-10.742,32.013-13.1a96.3411,96.3411,0,0,1,25.877-1.711c-10.158-8.135-22.606-13.387-36.117-12.864-16.057.62-27.54,10.789-39.513,19.854-15.178,11.491-32.37,19.01-50.37,24.582Z"/><path id="Path_291" data-name="Path 291" class="cls-6" d="M764.959,38.37a88.8552,88.8552,0,0,0-55.164,4.1c14.981,3.182,29.234,10.544,43.064,16.628,15.3.99,30.74.425,46.081.76q4.3629-.192,8.719-.472C793.739,51.694,780.659,42.388,764.959,38.37Z"/><path id="Path_292" data-name="Path 292" class="cls-6" d="M943.998,64.114c.046-.018.09-.036.136-.054l-.139-.054-.006.042Z"/><path id="Path_293" data-name="Path 293" class="cls-6" d="M709.793,85.63a88.8553,88.8553,0,0,0,55.164,4.1c15.7021-4.018,28.782-13.325,42.7021-21.017q-4.356-.2831-8.719-.471c-15.341.335-30.781-.23-46.081.76C739.027,75.086,724.776,82.45,709.793,85.63Z"/><path id="Path_294" data-name="Path 294" class="cls-6" d="M763.137,98.538a96.3413,96.3413,0,0,1-25.87,1.706c10.158,8.14,22.606,13.39,36.117,12.868,16.057-.621,27.54-10.79,39.514-19.855,15.169-11.491,32.362-19.013,50.369-24.581H826.96c-11.413,4.058-21.441,10.723-31.811,16.761C785.132,91.268,774.646,96.176,763.137,98.538Z"/><path id="Path_295" data-name="Path 295" class="cls-6" d="M797.234,13.535c10.849,5.986,19.65,14.81,30.1,21.372,20.791,13.057,45.012,19.365,69.006,24.517h36.312c-7.3-3.041-14.5171-6.247-21.611-9.7-19.798-9.652-38.045-21.768-57.089-32.673-21.4811-12.3-52.049-24.362-75.006-9.63A53.38,53.38,0,0,1,797.234,13.535Z"/><path id="Path_296" data-name="Path 296" class="cls-6" d="M696.554,49.052c-16.865-.314-32.239,6.982-46.554,15,14.315,8.017,29.69,15.313,46.554,15,16.574-.31,32.35-8.123,47.392-15C728.904,57.175,713.127,49.361,696.554,49.052Z"/><path id="Path_297" data-name="Path 297" class="cls-6" d="M823.117,95.969c-10.046,6.913-18.858,15.707-30.19,20.748a51.8243,51.8243,0,0,1-13.837,3.966c11.057,6.769,25.211,7.947,37.95,5.529,15.2671-2.9,29-10.431,42.113-18.2,9.65-5.712,19.174-11.624,28.864-17.271a387.1722,387.1722,0,0,1,44.8-22.065H896.348a326.8444,326.8444,0,0,0-39.361,10.53A142.3728,142.3728,0,0,0,823.117,95.969Z"/><path id="Path_298" data-name="Path 298" class="cls-6" d="M826.96,59.424h36.307c-18.007-5.572-35.2-13.091-50.374-24.581-11.974-9.066-23.457-19.235-39.514-19.855-13.512-.523-25.958,4.728-36.112,12.864a96.3751,96.3751,0,0,1,25.87,1.71c11.511,2.358,21.994,7.27,32.013,13.1C805.521,48.698,815.547,55.366,826.96,59.424Z"/><path id="Path_299" data-name="Path 299" class="cls-6" d="M2.765,34.466C1.827,33.947.909,33.404,0,32.847V47.253a43.4307,43.4307,0,0,0,21.051-6.674A53.3794,53.3794,0,0,1,2.765,34.466Z"/><path id="Path_300" data-name="Path 300" class="cls-6" d="M62.738,20.144a96.3752,96.3752,0,0,1-25.874-1.706C25.352,16.079,14.87,11.168,4.851,5.337Q2.4159,3.92,0,2.468v20.35c7.882,5.455,16.307,9.8,26.621,10.194C40.132,33.534,52.58,28.284,62.738,20.144Z"/><path id="Path_301" data-name="Path 301" class="cls-6" d="M90.207,5.53C75.224,2.349,60.971-5.015,47.141-11.098c-15.303-.99-30.74-.425-46.081-.76-.354.016-.706.035-1.06.052v4.809C11.188-.433,22.242,6.355,35.043,9.629A88.8551,88.8551,0,0,0,90.207,5.53Z"/><path id="Path_306" data-name="Path 306" class="cls-6" d="M36.864,109.462a96.3394,96.3394,0,0,1,25.874-1.71C52.58,99.617,40.132,94.365,26.621,94.888,16.307,95.288,7.882,99.626,0,105.082v20.35c1.613-.963,3.227-1.924,4.85-2.869C14.868,116.732,25.354,111.821,36.864,109.462Z"/><path id="Path_307" data-name="Path 307" class="cls-6" d="M20.91,87.317A47.4142,47.4142,0,0,0,0,80.839V95.055a60.0531,60.0531,0,0,1,7.074-3.772A51.8259,51.8259,0,0,1,20.91,87.317Z"/><path id="Path_308" data-name="Path 308" class="cls-6" d="M47.141,138.998c13.832-6.084,28.083-13.446,43.066-16.628a88.8559,88.8559,0,0,0-55.164-4.1C22.243,121.544,11.188,128.332,0,134.896v4.809c.354.017.706.036,1.06.052C16.401,139.422,31.838,139.987,47.141,138.998Z"/></g><g id="Group_19" data-name="Group 19" class="cls-5"><path id="Path_15-2" data-name="Path 15-2" class="cls-6" d="M1823.596-11.5521h-36.312c7.3,3.041,14.5169,6.247,21.6109,9.7,19.798,9.651,38.041,21.768,57.086,32.672,15.3719,8.804,35.395,17.478,53.9549,16.305V32.7189c-9.612-5.881-17.7879-13.758-27.333-19.753C1871.8109-.0921,1847.59-6.4011,1823.596-11.5521Z"/><path id="Path_17-2" data-name="Path 17-2" class="cls-6" d="M1856.669-11.5521c18.0069,5.568,35.197,13.09,50.374,24.581,4.283,3.242,8.504,6.625,12.8929,9.661V2.34c-8.693-5.192-17.3339-10.47-26.96-13.892Z"/><path id="Path_23-2" data-name="Path 23-2" class="cls-6" d="M1856.669,139.1959h36.307c9.626-3.422,18.2679-8.7,26.96-13.892v-20.35c-4.389,3.037-8.61,6.418-12.8929,9.661C1891.866,126.1059,1874.6759,133.6279,1856.669,139.1959Z"/><path id="Path_24-2" data-name="Path 24-2" class="cls-6" d="M1902.8959,81.66c-15.267,2.9-29,10.431-42.113,18.2-9.647,5.711-19.174,11.624-28.867,17.271a387.1722,387.1722,0,0,1-44.8,22.065h36.472a327.0051,327.0051,0,0,0,39.362-10.53,142.4067,142.4067,0,0,0,33.873-16.757c7.8571-5.415,14.9659-11.97,23.113-16.982V80.7089A63.74,63.74,0,0,0,1902.8959,81.66Z"/><path id="Path_97-2" data-name="Path 97-2" class="cls-6" d="M1132.8279,93.1289c15.1751-11.491,32.3681-19.013,50.375-24.581h-36.307c-11.413,4.058-21.441,10.723-31.811,16.761-10.018,5.831-20.5,10.742-32.013,13.1a96.3426,96.3426,0,0,1-25.869,1.707c10.158,8.14,22.606,13.39,36.117,12.868C1109.372,112.3629,1120.8549,102.1939,1132.8279,93.1289Z"/><path id="Path_98-2" data-name="Path 98-2" class="cls-6" d="M1179.0889,107.8869c9.65-5.715,19.1739-11.627,28.864-17.274a387.1416,387.1416,0,0,1,44.8-22.065h-36.469a326.8444,326.8444,0,0,0-39.361,10.53,142.3746,142.3746,0,0,0-33.87,16.763c-10.042,6.913-18.854,15.71-30.187,20.748a51.8243,51.8243,0,0,1-13.837,3.966c11.057,6.769,25.211,7.947,37.95,5.529C1152.2429,123.1859,1165.9779,115.6479,1179.0889,107.8869Z"/><path id="Path_99-2" data-name="Path 99-2" class="cls-6" d="M1216.2759,59.2959h36.312c-7.3-3.041-14.5169-6.247-21.6109-9.7-19.798-9.652-38.0451-21.768-57.089-32.673-21.481-12.3-52.049-24.362-75.007-9.63a53.38,53.38,0,0,1,18.289,6.114c10.849,5.986,19.65,14.81,30.1,21.372C1168.0609,47.8359,1192.2819,54.1439,1216.2759,59.2959Z"/><path id="Path_100-2" data-name="Path 100-2" class="cls-6" d="M1146.8959,59.2959h36.307c-18.0069-5.572-35.2-13.091-50.375-24.581-11.973-9.066-23.456-19.235-39.5131-19.855-13.5119-.523-25.958,4.728-36.112,12.864a96.3754,96.3754,0,0,1,25.87,1.71c11.511,2.358,21.994,7.27,32.013,13.1C1125.4569,48.57,1135.4829,55.2379,1146.8959,59.2959Z"/><path id="Path_101-2" data-name="Path 101-2" class="cls-6" d="M1016.491,48.9239c-16.866-.314-32.24,6.982-46.555,15,14.315,8.017,29.69,15.313,46.555,15,16.573-.31,32.35-8.123,47.391-15C1048.84,57.0469,1033.0629,49.2329,1016.491,48.9239Z"/><path id="Path_102-2" data-name="Path 102-2" class="cls-6" d="M1127.595,68.5849q-4.3561-.2831-8.719-.471c-15.3409.335-30.781-.23-46.081.76-13.8321,6.084-28.0831,13.448-43.0661,16.628a88.857,88.857,0,0,0,55.1641,4.1C1100.595,85.5839,1113.675,76.2769,1127.595,68.5849Z"/><path id="Path_103-2" data-name="Path 103-2" class="cls-6" d="M1118.8759,59.73q4.363-.192,8.719-.472c-13.92-7.692-27-17-42.7-21.016a88.8553,88.8553,0,0,0-55.164,4.1c14.9809,3.182,29.234,10.544,43.0639,16.628C1088.095,59.9589,1103.5349,59.3939,1118.8759,59.73Z"/><path id="Path_104-2" data-name="Path 104-2" class="cls-6" d="M1263.925,63.92l.009.066c.046-.018.09-.036.136-.054l-.1391-.054Z"/><path id="Path_105-2" data-name="Path 105-2" class="cls-6" d="M1604.7869,5.2089c-10.371-6.036-20.398-12.703-31.813-16.761h-36.3c18,5.568,35.192,13.09,50.37,24.581,11.974,9.066,23.457,19.234,39.514,19.855,13.51.522,25.958-4.728,36.116-12.868A96.376,96.376,0,0,1,1636.8,18.31C1625.288,15.9479,1614.8059,11.0389,1604.7869,5.2089Z"/><path id="Path_106-2" data-name="Path 106-2" class="cls-6" d="M1620.987,40.4479a53.3784,53.3784,0,0,1-18.286-6.11c-10.849-5.986-19.65-14.81-30.1-21.372-20.79-13.058-45.0141-19.367-69.005-24.518h-36.309c7.3,3.041,14.517,6.247,21.611,9.7,19.8,9.646,38.045,21.763,57.086,32.667C1567.461,43.1219,1598.029,55.1819,1620.987,40.4479Z"/><path id="Path_107-2" data-name="Path 107-2" class="cls-6" d="M1634.9789,9.5009a88.8554,88.8554,0,0,0,55.1641-4.099c-14.9831-3.181-29.236-10.545-43.0661-16.628-15.3029-.99-30.74-.425-46.081-.76q-4.363.193-8.719.471C1606.1969-3.8231,1619.273,5.4839,1634.9789,9.5009Z"/><path id="Path_114-2" data-name="Path 114-2" class="cls-6" d="M1620.846,87.1889c-11.057-6.769-25.2111-7.948-37.95-5.529-15.2669,2.9-29,10.431-42.113,18.2-9.65,5.715-19.174,11.628-28.867,17.275a387.1642,387.1642,0,0,1-44.8,22.065h36.472a327.0063,327.0063,0,0,0,39.3581-10.535,142.4024,142.4024,0,0,0,33.8769-16.758c10.041-6.917,18.8531-15.714,30.1861-20.752A51.8247,51.8247,0,0,1,1620.846,87.1889Z"/><path id="Path_115-2" data-name="Path 115-2" class="cls-6" d="M1600.996,139.63c15.3409-.335,30.778.23,46.0811-.76,13.832-6.084,28.083-13.446,43.066-16.628a88.8549,88.8549,0,0,0-55.1639-4.1c-15.7061,4.018-28.782,13.324-42.7,21.016Q1596.633,139.4418,1600.996,139.63Z"/><path id="Path_116-2" data-name="Path 116-2" class="cls-6" d="M1626.5569,94.76c-16.057.62-27.54,10.789-39.513,19.854-15.178,11.491-32.37,19.01-50.37,24.582h36.3c11.413-4.058,21.441-10.723,31.81-16.761,10.0179-5.831,20.5-10.742,32.013-13.1a96.3416,96.3416,0,0,1,25.877-1.711C1652.5159,99.4889,1640.0679,94.2369,1626.5569,94.76Z"/><path id="Path_194-2" data-name="Path 194-2" class="cls-6" d="M1383.882,63.9209c-15.042-6.874-30.819-14.688-47.392-14.997-16.865-.314-32.239,6.982-46.5539,15,14.3149,8.017,29.69,15.313,46.5539,15C1353.064,78.6139,1368.84,70.7969,1383.882,63.9209Z"/><path id="Path_195-2" data-name="Path 195-2" class="cls-6" d="M1536.284,68.5479a326.8444,326.8444,0,0,0-39.361,10.53,142.3746,142.3746,0,0,0-33.87,16.763c-10.046,6.913-18.858,15.707-30.19,20.748a51.825,51.825,0,0,1-13.8371,3.966c11.057,6.769,25.2111,7.947,37.95,5.529,15.2669-2.9,29-10.431,42.113-18.2,9.65-5.712,19.174-11.624,28.864-17.271a387.1736,387.1736,0,0,1,44.8-22.065Z"/><path id="Path_196-2" data-name="Path 196-2" class="cls-6" d="M1583.925,63.92l.009.066c.046-.018.09-.036.136-.054l-.1391-.054Z"/><path id="Path_197-2" data-name="Path 197-2" class="cls-6" d="M1404.8949,89.6009c15.7-4.017,28.78-13.324,42.7-21.016q-4.3562-.2831-8.719-.471c-15.341.335-30.781-.23-46.0811.76-13.832,6.084-28.083,13.448-43.066,16.628A88.8566,88.8566,0,0,0,1404.8949,89.6009Z"/><path id="Path_198-2" data-name="Path 198-2" class="cls-6" d="M1392.795,58.97c15.3.99,30.74.425,46.081.76q4.363-.192,8.719-.472c-13.92-7.692-27-17-42.7-21.016a88.8549,88.8549,0,0,0-55.1639,4.1C1364.7119,45.5239,1378.965,52.8859,1392.795,58.97Z"/><path id="Path_199-2" data-name="Path 199-2" class="cls-6" d="M1418.888,7.2919a53.3784,53.3784,0,0,1,18.282,6.115c10.849,5.986,19.65,14.81,30.1,21.372,20.791,13.057,45.012,19.365,69.006,24.517h36.312c-7.3-3.041-14.5169-6.247-21.6109-9.7-19.798-9.652-38.0451-21.768-57.089-32.673C1472.41,4.6209,1441.8419-7.4391,1418.888,7.2919Z"/><path id="Path_200-2" data-name="Path 200-2" class="cls-6" d="M1466.8959,59.2959h36.307c-18.0069-5.572-35.2-13.091-50.374-24.581-11.974-9.066-23.457-19.235-39.5141-19.855-13.5119-.523-25.958,4.728-36.112,12.864a96.3754,96.3754,0,0,1,25.87,1.71c11.511,2.358,21.994,7.27,32.013,13.1C1445.4569,48.57,1455.4829,55.2379,1466.8959,59.2959Z"/><path id="Path_201-2" data-name="Path 201-2" class="cls-6" d="M1413.315,112.9839c16.057-.621,27.54-10.79,39.514-19.855,15.174-11.491,32.367-19.013,50.374-24.581h-36.3071c-11.413,4.058-21.441,10.723-31.811,16.761-10.018,5.831-20.5,10.742-32.013,13.1a96.3426,96.3426,0,0,1-25.869,1.707C1387.357,108.2559,1399.8029,113.5059,1413.315,112.9839Z"/><path id="Path_202-2" data-name="Path 202-2" class="cls-6" d="M1300.987,40.4479a53.3827,53.3827,0,0,1-18.286-6.11c-10.849-5.986-19.65-14.81-30.1-21.372-20.79-13.058-45.0141-19.367-69.005-24.518h-36.309c7.3,3.041,14.517,6.247,21.611,9.7,19.8,9.646,38.045,21.763,57.086,32.667C1247.461,43.1219,1278.029,55.1819,1300.987,40.4479Z"/><path id="Path_204-2" data-name="Path 204-2" class="cls-6" d="M1314.9789,9.5009a88.8561,88.8561,0,0,0,55.1641-4.099c-14.9831-3.181-29.236-10.545-43.0661-16.628-15.3029-.99-30.74-.425-46.081-.76q-4.363.193-8.719.471C1286.1969-3.8231,1299.273,5.4839,1314.9789,9.5009Z"/><path id="Path_205-2" data-name="Path 205-2" class="cls-6" d="M1284.7869,5.2089c-10.371-6.036-20.398-12.703-31.813-16.761h-36.3c18,5.568,35.192,13.09,50.37,24.581,11.974,9.066,23.457,19.234,39.514,19.855,13.51.522,25.958-4.728,36.116-12.868A96.376,96.376,0,0,1,1316.8,18.31C1305.288,15.9479,1294.8059,11.0389,1284.7869,5.2089Z"/><path id="Path_207-2" data-name="Path 207-2" class="cls-6" d="M1220.783,99.8559c-9.65,5.715-19.174,11.628-28.867,17.275a387.14,387.14,0,0,1-44.8,22.065h36.472a327,327,0,0,0,39.3581-10.531,142.4024,142.4024,0,0,0,33.8769-16.758c10.041-6.917,18.8531-15.714,30.1861-20.752a51.8243,51.8243,0,0,1,13.837-3.966c-11.057-6.769-25.2111-7.948-37.95-5.529C1247.628,84.5569,1233.894,92.0909,1220.783,99.8559Z"/><path id="Path_210-2" data-name="Path 210-2" class="cls-6" d="M1327.0769,138.87c13.8321-6.084,28.083-13.446,43.0661-16.628a88.8556,88.8556,0,0,0-55.1641-4.1c-15.706,4.018-28.782,13.324-42.7,21.016q4.3558.283,8.719.471C1296.3369,139.2939,1311.774,139.8589,1327.0769,138.87Z"/><path id="Path_213-2" data-name="Path 213-2" class="cls-6" d="M1252.9739,139.1959c11.413-4.058,21.441-10.723,31.81-16.761,10.0179-5.831,20.5-10.742,32.013-13.1a96.3416,96.3416,0,0,1,25.877-1.711c-10.158-8.135-22.606-13.387-36.117-12.864-16.057.62-27.54,10.789-39.5129,19.854-15.178,11.491-32.37,19.01-50.37,24.582Z"/><path id="Path_291-2" data-name="Path 291-2" class="cls-6" d="M1724.8949,38.2419a88.8553,88.8553,0,0,0-55.164,4.1c14.9809,3.182,29.234,10.544,43.0639,16.628,15.3.99,30.74.425,46.0811.76q4.363-.192,8.719-.472C1753.675,51.5659,1740.595,42.26,1724.8949,38.2419Z"/><path id="Path_292-2" data-name="Path 292-2" class="cls-6" d="M1903.934,63.9859c.046-.018.09-.036.136-.054l-.1391-.054-.0059.042Z"/><path id="Path_293-2" data-name="Path 293-2" class="cls-6" d="M1669.7289,85.5019a88.8555,88.8555,0,0,0,55.1641,4.1c15.702-4.018,28.782-13.325,42.702-21.017q-4.3561-.2831-8.719-.471c-15.3409.335-30.781-.23-46.081.76C1698.9629,74.9579,1684.7119,82.3219,1669.7289,85.5019Z"/><path id="Path_294-2" data-name="Path 294-2" class="cls-6" d="M1723.0729,98.41a96.3416,96.3416,0,0,1-25.87,1.706c10.158,8.14,22.606,13.39,36.117,12.868,16.057-.621,27.54-10.79,39.514-19.855,15.1689-11.491,32.3621-19.013,50.369-24.581h-36.307c-11.413,4.058-21.441,10.723-31.811,16.761C1745.0679,91.14,1734.5819,96.0479,1723.0729,98.41Z"/><path id="Path_295-2" data-name="Path 295-2" class="cls-6" d="M1757.17,13.4069c10.849,5.986,19.65,14.81,30.1,21.372,20.791,13.057,45.012,19.365,69.006,24.517h36.312c-7.3-3.041-14.5169-6.247-21.6109-9.7-19.798-9.652-38.0451-21.768-57.089-32.673-21.481-12.3-52.049-24.362-75.006-9.63A53.38,53.38,0,0,1,1757.17,13.4069Z"/><path id="Path_296-2" data-name="Path 296-2" class="cls-6" d="M1656.49,48.9239c-16.865-.314-32.239,6.982-46.554,15,14.315,8.017,29.69,15.313,46.554,15,16.574-.31,32.35-8.123,47.392-15C1688.84,57.0469,1673.0629,49.2329,1656.49,48.9239Z"/><path id="Path_297-2" data-name="Path 297-2" class="cls-6" d="M1783.0529,95.8409c-10.046,6.913-18.858,15.707-30.19,20.748a51.8243,51.8243,0,0,1-13.837,3.966c11.057,6.769,25.2111,7.947,37.95,5.529,15.2669-2.9,29-10.431,42.113-18.2,9.65-5.712,19.1739-11.624,28.864-17.271a387.1736,387.1736,0,0,1,44.8-22.065h-36.469a326.8444,326.8444,0,0,0-39.361,10.53A142.3753,142.3753,0,0,0,1783.0529,95.8409Z"/><path id="Path_298-2" data-name="Path 298-2" class="cls-6" d="M1786.8959,59.2959h36.307c-18.0069-5.572-35.2-13.091-50.374-24.581-11.974-9.066-23.457-19.235-39.5141-19.855-13.5119-.523-25.958,4.728-36.112,12.864a96.3754,96.3754,0,0,1,25.87,1.71c11.511,2.358,21.994,7.27,32.013,13.1C1765.4569,48.57,1775.4829,55.2379,1786.8959,59.2959Z"/><path id="Path_299-2" data-name="Path 299-2" class="cls-6" d="M962.701,34.3379c-.938-.519-1.8561-1.062-2.7651-1.619v14.406a43.4307,43.4307,0,0,0,21.0511-6.674A53.3808,53.3808,0,0,1,962.701,34.3379Z"/><path id="Path_300-2" data-name="Path 300-2" class="cls-6" d="M1022.674,20.0159A96.3749,96.3749,0,0,1,996.8,18.31c-11.5121-2.359-21.9941-7.27-32.013-13.101q-2.4352-1.4171-4.8511-2.869V22.69c7.8821,5.455,16.307,9.8,26.621,10.194C1000.068,33.4059,1012.516,28.1559,1022.674,20.0159Z"/><path id="Path_301-2" data-name="Path 301-2" class="cls-6" d="M1050.143,5.4019c-14.9831-3.181-29.236-10.545-43.066-16.628-15.303-.99-30.74-.425-46.081-.76-.354.016-.706.035-1.06.052v4.809c11.188,6.564,22.242,13.352,35.043,16.626A88.8551,88.8551,0,0,0,1050.143,5.4019Z"/><path id="Path_306-2" data-name="Path 306-2" class="cls-6" d="M996.8,109.3339a96.3389,96.3389,0,0,1,25.874-1.71c-10.158-8.135-22.606-13.387-36.117-12.864-10.3141.4-18.739,4.738-26.621,10.194v20.35c1.613-.963,3.227-1.924,4.85-2.869C974.8039,116.6039,985.29,111.6929,996.8,109.3339Z"/><path id="Path_307-2" data-name="Path 307-2" class="cls-6" d="M980.8459,87.1889a47.4138,47.4138,0,0,0-20.91-6.478v14.216a60.0462,60.0462,0,0,1,7.074-3.772A51.8259,51.8259,0,0,1,980.8459,87.1889Z"/><path id="Path_308-2" data-name="Path 308-2" class="cls-6" d="M1007.0769,138.87c13.8321-6.084,28.083-13.446,43.0661-16.628a88.8553,88.8553,0,0,0-55.164-4.1c-12.8,3.274-23.855,10.062-35.0431,16.626v4.809c.354.017.706.036,1.06.052C976.3369,139.2939,991.774,139.8589,1007.0769,138.87Z"/></g></g></g></g></g></g></svg>